<?xml version="1.0" encoding="utf-8"?>
<!-- Generator: Adobe Illustrator 19.0.0, SVG Export Plug-In . SVG Version: 6.00 Build 0)  -->
<svg version="1.0" id="Capa_1" xmlns="http://www.w3.org/2000/svg" xmlns:xlink="http://www.w3.org/1999/xlink" x="0px" y="0px"
	 viewBox="0 0 401 500" style="enable-background:new 0 0 401 500;" xml:space="preserve">
<style type="text/css">
	.st0{display:none;fill:#FFFFFF;stroke:#000000;stroke-miterlimit:10;}
	.st1{display:none;fill:url(#Final_1_);}
	.st2{display:none;fill:url(#Final_Final_1_);}
	.st3{display:none;fill:none;stroke:#000000;stroke-miterlimit:10;}
	.st4{fill:url(#XMLID_95_);}
</style>
<polygon id="Play_Original" class="st0" points="4.9,412.1 4.9,87.9 205.1,250 "/>
<path id="XMLID_2_" class="st0" d="M4.9,87.9"/>
<path id="Play_2_" class="st0" d="M4.9,87.9"/>
<linearGradient id="Final_1_" gradientUnits="userSpaceOnUse" x1="-16" y1="250.0018" x2="225.1103" y2="250.0018">
	<stop  offset="0" style="stop-color:#4CA2E8"/>
	<stop  offset="1" style="stop-color:#00A7AA"/>
</linearGradient>
<path id="Final" class="st1" d="M4.9,432.1c-2.9,0-6.3-0.6-9-1.9c-7-3.3-11.8-10.3-11.8-18.1V159.7c0-11,9-20,20-20s20,9,20,20
	v210.5L172.9,250L-7.9,103.5c-8.6-6.9-9.8-19.5-2.9-28.1c7-8.6,19.6-9.9,28.2-3l200.3,162.1c4.7,3.8,7.4,9.5,7.4,15.5
	c0,6-2.7,11.7-7.4,15.5L17.5,427.6C13.8,430.6,9.4,432.1,4.9,432.1z"/>
<linearGradient id="Final_Final_1_" gradientUnits="userSpaceOnUse" x1="25.9587" y1="250.0017" x2="189.21" y2="250.0017">
	<stop  offset="0" style="stop-color:#4CA2E8"/>
	<stop  offset="1" style="stop-color:#00A7AA"/>
</linearGradient>
<path id="Final_Final" class="st2" d="M37.5,375c-1.7,0-3.4-0.4-4.9-1.1c-4-1.9-6.5-5.9-6.5-10.3v-177c0-6.3,4.7-11.4,11-11.4
	s11,5.1,11,11.4v153.1L159.4,250L30.1,145.2c-4.9-3.9-5.5-11.1-1.6-16c3.9-4.9,11.2-5.6,16-1.7L185,241.2c2.7,2.2,4.2,5.4,4.2,8.8
	c0,3.4-1.5,6.7-4.2,8.8L44.6,372.5C42.6,374.1,40,375,37.5,375z"/>
<polyline id="Play" class="st3" points="-18.8,50 228.3,250 -18.8,450 -18.8,138.6 "/>
<linearGradient id="XMLID_95_" gradientUnits="userSpaceOnUse" x1="0" y1="250" x2="400.9948" y2="250">
	<stop  offset="0" style="stop-color:#4CA2E8"/>
	<stop  offset="1" style="stop-color:#00A7AA"/>
</linearGradient>
<path id="XMLID_28_" class="st4" d="M33.2,500c-5.3,0-11-1.3-15.9-4C6.8,490.3,0,479.3,0,467.4v-284c0-18,14.5-32.6,32.5-32.6
	S65,165.4,65,183.4v224L308.1,250L15.3,60C0.1,50.2-4.1,30,5.7,14.9c9.8-15.1,30-19.4,45.2-9.6l335.2,217.4
	c9.3,6,14.9,16.3,14.9,27.4s-5.6,21.3-14.9,27.4L50.9,494.7C45.6,498.2,39.4,500,33.2,500z"/>
<polyline id="Play_Final" class="st3" points="30.6,50 339,250 30.6,450 30.6,188.7 "/>
</svg>
