<?xml version="1.0" encoding="utf-8"?>
<!-- Generator: Adobe Illustrator 19.0.0, SVG Export Plug-In . SVG Version: 6.00 Build 0)  -->
<svg version="1.0" id="Capa_1" xmlns="http://www.w3.org/2000/svg" xmlns:xlink="http://www.w3.org/1999/xlink" x="0px" y="0px"
	 viewBox="0 0 500 500" style="enable-background:new 0 0 500 500;" xml:space="preserve">
<style type="text/css">
	.st0{display:none;fill:#FFFFFF;stroke:#000000;stroke-miterlimit:10;}
	.st1{display:none;fill:url(#Final_1_);}
	.st2{display:none;fill:url(#Final_Final_1_);}
	.st3{display:none;fill:none;stroke:#000000;stroke-miterlimit:10;}
	.st4{fill:url(#XMLID_44_);}
	.st5{fill:url(#Borde_Final_1_);}
</style>
<polygon id="Play_Original" class="st0" points="100.6,412.1 100.6,87.9 300.8,250 "/>
<path id="XMLID_2_" class="st0" d="M100.6,87.9"/>
<path id="Play_2_" class="st0" d="M100.6,87.9"/>
<linearGradient id="Final_1_" gradientUnits="userSpaceOnUse" x1="79.6802" y1="249.9997" x2="320.7905" y2="249.9997">
	<stop  offset="0" style="stop-color:#4CA2E8"/>
	<stop  offset="1" style="stop-color:#00A7AA"/>
</linearGradient>
<path id="Final" class="st1" d="M100.6,432.1c-2.9,0-6.3-0.6-9-1.9c-7-3.3-11.8-10.3-11.8-18.1V159.7c0-11,9-20,20-20s20,9,20,20
	v210.5L268.6,250L87.8,103.5c-8.6-6.9-9.8-19.5-2.9-28.1c7-8.6,19.6-9.9,28.2-3l200.3,162.1c4.7,3.8,7.4,9.5,7.4,15.5
	c0,6-2.7,11.7-7.4,15.5L113.1,427.6C109.5,430.6,105.1,432.1,100.6,432.1z"/>
<linearGradient id="Final_Final_1_" gradientUnits="userSpaceOnUse" x1="121.6389" y1="249.9997" x2="284.8901" y2="249.9997">
	<stop  offset="0" style="stop-color:#4CA2E8"/>
	<stop  offset="1" style="stop-color:#00A7AA"/>
</linearGradient>
<path id="Final_Final" class="st2" d="M133.1,375c-1.7,0-3.4-0.4-4.9-1.1c-4-1.9-6.5-5.9-6.5-10.3v-177c0-6.3,4.7-11.4,11-11.4
	s11,5.1,11,11.4v153.1L255.1,250L125.8,145.2c-4.9-3.9-5.5-11.1-1.6-16c3.9-4.9,11.2-5.6,16-1.7l140.4,113.6
	c2.7,2.2,4.2,5.4,4.2,8.8c0,3.4-1.5,6.7-4.2,8.8L140.3,372.5C138.2,374.1,135.7,375,133.1,375z"/>
<polyline id="Play" class="st3" points="76.9,50 324,250 76.9,450 76.9,138.6 "/>
<linearGradient id="XMLID_44_" gradientUnits="userSpaceOnUse" x1="162.4691" y1="249.9995" x2="376.8281" y2="249.9995">
	<stop  offset="0" style="stop-color:#4CA2E8"/>
	<stop  offset="1" style="stop-color:#00A7AA"/>
</linearGradient>
<path id="XMLID_28_" class="st4" d="M185.7,409.1c-3.3,0-5.3-0.7-8.4-2.2c-7.9-3.8-11.6-11.8-11.6-20.5V208.2
	c0-12.6,7.4-22.7,20-22.7s20,10.2,20,22.7v130.5l111-88.7l-146-118.7c-9.8-7.9-10.9-22.2-3-32c7.9-9.8,22.4-11.3,32.1-3.4
	l168.6,136.4c5.3,4.3,8.5,10.8,8.5,17.7c0,6.9-3.1,13.4-8.4,17.7L200,404C195.8,407.4,190.8,409.1,185.7,409.1z"/>
<polyline id="Play_Final" class="st3" points="119.9,130 268.1,250 119.9,370 119.9,213.2 "/>
<linearGradient id="Borde_Final_1_" gradientUnits="userSpaceOnUse" x1="0" y1="249.9997" x2="500" y2="249.9997">
	<stop  offset="0" style="stop-color:#4CA2E8"/>
	<stop  offset="1" style="stop-color:#00A7AA"/>
</linearGradient>
<path id="Borde_Final" class="st5" d="M250,500c-66.8,0-129.6-26-176.8-73.2C26,379.6,0,316.8,0,250c0-66.8,26-129.6,73.2-176.8
	C120.4,26,183.2,0,250,0c39.6,0,79.1,9.5,114.1,27.5c11.2,5.7,15.6,19.4,9.8,30.6c-5.7,11.2-19.4,15.6-30.6,9.8
	c-29-14.9-60.4-22.5-93.3-22.5C137.2,45.5,45.5,137.2,45.5,250c0,112.8,91.8,204.5,204.5,204.5S454.5,362.8,454.5,250
	c0-55.3-21.7-107.1-61.2-145.9c-9-8.8-9.1-23.2-0.3-32.1c8.8-9,23.2-9.1,32.1-0.3C473.4,119,500,182.4,500,250
	c0,66.8-26,129.6-73.2,176.8S316.8,500,250,500z"/>
<path id="XMLID_30_" class="st3" d="M334.2,107.3C371.1,143.6,394,194.1,394,250c0,110.5-89.5,200-200,200S-6,360.5-6,250
	S83.5,50,194,50c32.9,0,63.9,7.9,91.2,22"/>
</svg>
