<?xml version="1.0" encoding="utf-8"?>
<!-- Generator: Adobe Illustrator 19.0.0, SVG Export Plug-In . SVG Version: 6.00 Build 0)  -->
<svg version="1.0" xmlns="http://www.w3.org/2000/svg" xmlns:xlink="http://www.w3.org/1999/xlink" x="0px" y="0px"
	 viewBox="0 0 700 700" style="enable-background:new 0 0 700 700;" xml:space="preserve">
<style type="text/css">
	.st0{fill:url(#XMLID_57_);}
	.st1{fill:#FFFFFF;}
	.st2{display:none;fill:#FFFFFF;stroke:url(#Borde_1_);stroke-miterlimit:10;}
</style>
<g id="Fondo">
	<linearGradient id="XMLID_57_" gradientUnits="userSpaceOnUse" x1="0" y1="350" x2="700" y2="350">
		<stop  offset="0" style="stop-color:#4CA2E8"/>
		<stop  offset="1" style="stop-color:#00A7AA"/>
	</linearGradient>
	<rect id="XMLID_55_" class="st0" width="700" height="700"/>
</g>
<g id="Logo">
	<path id="Derecha" class="st1" d="M469.8,538c-1.3,0-2.6-0.3-3.9-0.8l-43.3-18.3c-2.4-1-4.4-3-5.4-5.4l-99.8-243.7
		c-1-2.4-1-5.2,0-7.6l17.7-42.9c1.5-3.7,5.2-6.2,9.2-6.2s7.7,2.4,9.2,6.2l125.4,304.9c1.5,3.7,0.7,8.1-2.2,10.9
		C475,537,472.4,538,469.8,538z"/>
	<path id="Izquierda" class="st1" d="M189.6,538.5c-1.6,0-3.2-0.4-4.6-1.1l-38.5-19.9c-4.6-2.4-6.6-7.9-4.6-12.8l141.7-337.5
		c1.6-3.7,5.2-6.1,9.2-6.1h43.7c3.3,0,6.5,1.7,8.3,4.4c1.9,2.8,2.2,6.3,0.9,9.4L198.8,532.3c-1.1,2.6-3.2,4.6-5.8,5.6
		C191.9,538.3,190.7,538.5,189.6,538.5z"/>
	<path id="Lapiz" class="st1" d="M493.8,519c-4,0-7.6-2.6-9.2-6.3l-22.6-54.2c-1-2.4-1-5.2,0-7.7l40.8-100.2
		c0.8-1.9,2.1-3.6,3.9-4.7l37.3-23.8c1.6-1,3.5-1.6,5.4-1.6c1.7,0,3.3,0.4,4.8,1.2c3.2,1.8,5.2,5.1,5.2,8.8v48.9
		c0,1.4-0.3,2.7-0.8,3.9c0,0-37,86.3-55.5,129.3C501.5,516.4,497.9,519,493.8,519C493.9,519,493.9,519,493.8,519z"/>
	<path id="Centro" class="st1" d="M252.1,460.2c-2.3,0-4.5-0.9-6.2-2.5c-2.5-2.4-3.3-6.1-2-9.3l21.3-56.5c0.8-2,2.3-3.7,4.2-4.7
		l65.5-33.8c1.3-0.7,2.6-1,4-1c1,0,2.1,0.2,3.1,0.6c2.3,0.9,4.2,2.7,5.1,5l19.5,48.8c0.9,2.2,0.8,4.6-0.1,6.7
		c-0.9,2.1-2.7,3.8-4.9,4.7l-106.3,41.5C254.3,460,253.2,460.2,252.1,460.2z"/>
	<linearGradient id="Borde_1_" gradientUnits="userSpaceOnUse" x1="135.5843" y1="350" x2="564.4156" y2="350">
		<stop  offset="0" style="stop-color:#4CA2E8"/>
		<stop  offset="1" style="stop-color:#00A7AA"/>
	</linearGradient>
	<path id="Borde" class="st2" d="M556.4,317.4c-2.2-1.2-4.6-1.8-7.1-1.8c-2.9,0-5.6,0.8-8,2.4L504,341.7c-2.6,1.7-4.6,4.1-5.8,7
		l-40.7,100.2c-0.9,2.2-1.2,4.6-1,7l-98.1-238.5c-2.3-5.6-7.8-9.3-13.9-9.3c-2.9,0-5.6,0.8-7.9,2.3l13.8-33.6
		c1.9-4.6,1.4-9.6-1.4-13.8c-2.8-4.2-7.4-6.4-12.5-6.4h-43.7c-6.1,0-11.5,3.4-13.8,8.9L137.2,502.9c-3,7.2,0,15.5,6.9,19.1
		l38.5,19.9c2.1,1.1,4.5,1.7,6.9,1.7c1.8,0,3.5-0.3,5.2-0.9c3.9-1.4,7.1-4.5,8.7-8.4l35.3-85.9c-1.1,4.6,0.3,9.5,3.7,12.9
		c2.6,2.6,6,4,9.7,4c1.7,0,3.4-0.3,5-0.9l106.3-41.5c3.4-1.3,6.2-4,7.6-7.3c0.1-0.3,0.2-0.5,0.3-0.8l41.3,100.8
		c1.5,3.7,4.4,6.6,8,8.1l43.3,18.3c1.9,0.8,3.8,1.2,5.8,1.2c4,0,7.7-1.5,10.6-4.3c4.3-4.3,5.6-10.7,3.3-16.4l-1.9-4.3
		c2.8,3.9,7.3,6.5,12,6.5h0.1c5.9,0,11.4-3.9,13.8-9.5c18.3-42.5,54.9-128.6,55.3-129.4c0.8-1.9,1-4,1-6v-48.9
		C563.9,325.1,561.2,320.1,556.4,317.4z M343.8,348.2c-1.5-0.6-3.2-0.9-4.8-0.9c-2.2,0-4.4,0.5-6.3,1.5l-65.5,33.8
		c-0.7,0.4-1.4,0.8-2,1.3l47-114.4c0.2,0.7,0.4,1.5,0.7,2.2l31.4,76.7C344.1,348.3,343.9,348.2,343.8,348.2z"/>
</g>
</svg>
