<?xml version="1.0" encoding="utf-8"?>
<!-- Generator: Adobe Illustrator 19.0.0, SVG Export Plug-In . SVG Version: 6.00 Build 0)  -->
<svg version="1.0" xmlns="http://www.w3.org/2000/svg" xmlns:xlink="http://www.w3.org/1999/xlink" x="0px" y="0px"
	 viewBox="42.9 16.3 500.2 500.2" style="enable-background:new 42.9 16.3 500.2 500.2;" xml:space="preserve">
<style type="text/css">
	.st0{display:none;}
	.st1{display:inline;}
	.st2{fill:none;stroke:#4D4D4D;stroke-width:0.25;stroke-miterlimit:10;}
	.st3{fill:url(#XMLID_3_);}
	.st4{display:inline;fill:url(#XMLID_5_);}
	.st5{fill:#4D4D4D;}
	.st6{display:none;fill:none;stroke:#4D4D4D;stroke-width:0.25;stroke-miterlimit:10;}
	.st7{fill:url(#SVGID_1_);}
</style>
<g id="Capa_1" class="st0">
	<g id="Copia" class="st1">
		<path id="XMLID_4_" class="st2" d="M287.4,243.6c7.7-12.9,10.3-28.4,10.3-43.8c0-54.1-43.8-97.9-97.9-97.9s-97.9,43.8-97.9,97.9
			s43.8,97.9,97.9,97.9c28.4,0,51.6-10.3,69.6-28.4l128.9,128.9"/>
	</g>
	<g id="Lupa">
		
			<linearGradient id="XMLID_3_" gradientUnits="userSpaceOnUse" x1="240.2919" y1="250.05" x2="259.6367" y2="250.05" gradientTransform="matrix(1 0 0 -1 2.224315e-07 500)">
			<stop  offset="0" style="stop-color:#4CA2E8"/>
			<stop  offset="1" style="stop-color:#00A7AA"/>
		</linearGradient>
		<path id="XMLID_7_" class="st3" d="M258.8,259.6c-0.1,0-0.3,0-0.4-0.1l-7.3-7.3c-1.2,1-2.7,1.5-4.2,1.5c-3.7,0-6.7-3-6.7-6.7
			s3-6.7,6.7-6.7s6.7,3,6.7,6.7c0,1-0.2,2-0.7,3c-0.1,0.1-0.2,0.3-0.4,0.3c-0.1,0-0.1,0-0.2,0c-0.1,0-0.2,0-0.3-0.1l-0.1-0.1
			c-0.3-0.2-0.4-0.5-0.3-0.8c0.4-0.7,0.5-1.5,0.5-2.3c0-2.9-2.4-5.3-5.3-5.3c-2.9,0-5.3,2.4-5.3,5.3s2.4,5.3,5.3,5.3
			c1.4,0,2.7-0.5,3.7-1.5c0.1-0.1,0.3-0.2,0.5-0.2s0.3,0,0.4,0.2l7.8,7.8c0.1,0.1,0.2,0.3,0.2,0.4s-0.1,0.3-0.2,0.4
			C259.3,259.5,259.1,259.6,258.8,259.6z"/>
		
			<linearGradient id="XMLID_5_" gradientUnits="userSpaceOnUse" x1="0.3999" y1="250" x2="500.3" y2="250" gradientTransform="matrix(1 0 0 -1 2.224315e-07 500)">
			<stop  offset="0" style="stop-color:#4CA2E8"/>
			<stop  offset="1" style="stop-color:#00A7AA"/>
		</linearGradient>
		<path id="XMLID_63_" class="st4" d="M484.8,500c-3.2,0-6.5-1.2-8.9-3.7L282.7,303.1c-30.9,25.8-69.6,39.9-110.3,39.9
			c-94.9,0-172-76.9-172-171.5C0.3,76.9,77.5,0,172.4,0s172,76.9,172,171.5c0,26.7-6,52.3-17.8,76.1c-1.5,3-4.1,5.3-7.3,6.4
			c-1.3,0.4-2.7,0.7-4,0.7c-1.9,0-3.9-0.4-5.6-1.3l-3.7-1.8c-6.2-3.1-8.8-10.7-5.7-16.9c9.8-19.7,14.7-40.8,14.7-63
			c0-78.4-64-142.2-142.7-142.2S29.7,93.1,29.7,171.5s64,142.2,142.7,142.2c37.9,0,73.6-14.6,100.5-41.2l1.4-1.4
			c2.5-2.4,5.7-3.6,8.9-3.6c3.2,0,6.5,1.2,8.9,3.7l204.5,204.5c2.4,2.4,3.7,5.6,3.7,8.9c0,3.4-1.3,6.6-3.7,8.9l-2.9,2.9
			C491.3,498.8,488.1,500,484.8,500z"/>
		<path id="XMLID_34_" class="st5" d="M472.9,475.6L281.2,284c-28.4,27.4-65.7,42.4-105.3,42.4c-83.6,0-151.5-67.7-151.5-151
			s68-151,151.5-151s151.5,67.7,151.5,151c0,23.5-5.3,46-15.6,66.9l-3.5-1.7c10.1-20.4,15.3-42.3,15.3-65.2
			c0-81.1-66.2-147.1-147.7-147.1S28.2,94.3,28.2,175.4s66.2,147.1,147.7,147.1c39.2,0,76.1-15.1,104-42.6l1.4-1.4l194.4,194.3
			L472.9,475.6z"/>
	</g>
</g>
<g id="Capa_2">
	<path class="st6" d="M398.3,418.3c-5.1,0-10.2-2-14.1-5.9L268.2,296.5c-19.7,14-43,21.2-68.4,21.2c-65,0-117.9-52.9-117.9-117.9
		S134.8,81.8,199.8,81.8c65,0,117.9,52.9,117.9,117.9c0,9.7-0.9,18.8-2.7,27.1c-2.3,10.8-13,17.6-23.8,15.3
		c-10.8-2.3-17.6-13-15.3-23.8c1.2-5.5,1.8-11.8,1.8-18.6c0-43-35-77.9-77.9-77.9c-43,0-77.9,35-77.9,77.9s35,77.9,77.9,77.9
		c21.9,0,40.5-7.6,55.4-22.5c3.8-3.8,8.8-5.9,14.1-5.9c5.3,0,10.4,2.1,14.1,5.9l128.9,128.9c7.8,7.8,7.8,20.5,0,28.3
		C408.5,416.3,403.4,418.3,398.3,418.3z"/>
	<linearGradient id="SVGID_1_" gradientUnits="userSpaceOnUse" x1="43.0606" y1="266.4075" x2="543.0607" y2="266.4075">
		<stop  offset="0" style="stop-color:#4CA2E8"/>
		<stop  offset="1" style="stop-color:#00A7AA"/>
	</linearGradient>
	<path class="st7" d="M520.3,516.4c-5.8,0-11.6-2.2-16.1-6.7L321.7,327.2c-30,23.3-65.4,35.1-105.7,35.1
		c-95.4,0-172.9-77.6-172.9-172.9C43.1,94,120.6,16.4,216,16.4S388.9,94,388.9,189.3c0,14.3-1.3,27.8-4,39.9
		c-2.7,12.3-14.8,20.1-27,17.4c-12.3-2.7-20-14.8-17.4-27c2-9,2.9-19.2,2.9-30.3c0-70.3-57.2-127.5-127.5-127.5S88.5,119,88.5,189.3
		S145.7,316.8,216,316.8c35.7,0,66.2-12.4,90.6-36.8c4.3-4.3,10-6.7,16.1-6.7c6,0,11.8,2.4,16.1,6.7l197.6,197.6
		c8.9,8.9,8.9,23.3,0,32.1C532,514.2,526.1,516.4,520.3,516.4z"/>
	<path id="XMLID_2_" class="st6" d="M274.1,213.1c2.2-10,3-20.4,3-30.9c0-73-59.1-132.2-132.2-132.2S12.7,109.2,12.7,182.2
		s59.1,132.2,132.2,132.2c38.3,0,69.6-13.9,93.9-38.3L412.7,450"/>
</g>
</svg>
