<?xml version="1.0" encoding="utf-8"?>
<!-- Generator: Adobe Illustrator 19.0.0, SVG Export Plug-In . SVG Version: 6.00 Build 0)  -->
<svg version="1.0" xmlns="http://www.w3.org/2000/svg" xmlns:xlink="http://www.w3.org/1999/xlink" x="0px" y="0px"
	 viewBox="66 12 500 500" style="enable-background:new 66 12 500 500;" xml:space="preserve">
<style type="text/css">
	.st0{display:none;}
	.st1{display:inline;}
	.st2{fill:none;stroke:#4D4D4D;stroke-width:0.25;stroke-miterlimit:10;}
	.st3{fill:url(#XMLID_3_);}
	.st4{display:inline;fill:url(#XMLID_5_);}
	.st5{fill:#4D4D4D;}
	.st6{display:none;fill:none;stroke:#4D4D4D;stroke-width:0.25;stroke-miterlimit:10;}
	.st7{fill:url(#SVGID_1_);}
</style>
<g id="Capa_1" class="st0">
	<g id="Copia" class="st1">
		<path id="XMLID_4_" class="st2" d="M287.4,243.6c7.7-12.9,10.3-28.4,10.3-43.8c0-54.1-43.8-97.9-97.9-97.9s-97.9,43.8-97.9,97.9
			s43.8,97.9,97.9,97.9c28.4,0,51.6-10.3,69.6-28.4l128.9,128.9"/>
	</g>
	<g id="Lupa">
		
			<linearGradient id="XMLID_3_" gradientUnits="userSpaceOnUse" x1="240.2919" y1="250.05" x2="259.6367" y2="250.05" gradientTransform="matrix(1 0 0 -1 0 500)">
			<stop  offset="0" style="stop-color:#4CA2E8"/>
			<stop  offset="1" style="stop-color:#00A7AA"/>
		</linearGradient>
		<path id="XMLID_7_" class="st3" d="M258.8,259.6c-0.1,0-0.3,0-0.4-0.1l-7.3-7.3c-1.2,1-2.7,1.5-4.2,1.5c-3.7,0-6.7-3-6.7-6.7
			s3-6.7,6.7-6.7s6.7,3,6.7,6.7c0,1-0.2,2-0.7,3c-0.1,0.1-0.2,0.3-0.4,0.3c-0.1,0-0.1,0-0.2,0c-0.1,0-0.2,0-0.3-0.1l-0.1-0.1
			c-0.3-0.2-0.4-0.5-0.3-0.8c0.4-0.7,0.5-1.5,0.5-2.3c0-2.9-2.4-5.3-5.3-5.3c-2.9,0-5.3,2.4-5.3,5.3s2.4,5.3,5.3,5.3
			c1.4,0,2.7-0.5,3.7-1.5c0.1-0.1,0.3-0.2,0.5-0.2s0.3,0,0.4,0.2l7.8,7.8c0.1,0.1,0.2,0.3,0.2,0.4s-0.1,0.3-0.2,0.4
			C259.3,259.5,259.1,259.6,258.8,259.6z"/>
		
			<linearGradient id="XMLID_5_" gradientUnits="userSpaceOnUse" x1="0.3999" y1="250" x2="500.3" y2="250" gradientTransform="matrix(1 0 0 -1 0 500)">
			<stop  offset="0" style="stop-color:#4CA2E8"/>
			<stop  offset="1" style="stop-color:#00A7AA"/>
		</linearGradient>
		<path id="XMLID_63_" class="st4" d="M484.8,500c-3.2,0-6.5-1.2-8.9-3.7L282.7,303.1c-30.9,25.8-69.6,39.9-110.3,39.9
			c-94.9,0-172-76.9-172-171.5C0.3,76.9,77.5,0,172.4,0s172,76.9,172,171.5c0,26.7-6,52.3-17.8,76.1c-1.5,3-4.1,5.3-7.3,6.4
			c-1.3,0.4-2.7,0.7-4,0.7c-1.9,0-3.9-0.4-5.6-1.3l-3.7-1.8c-6.2-3.1-8.8-10.7-5.7-16.9c9.8-19.7,14.7-40.8,14.7-63
			c0-78.4-64-142.2-142.7-142.2S29.7,93.1,29.7,171.5s64,142.2,142.7,142.2c37.9,0,73.6-14.6,100.5-41.2l1.4-1.4
			c2.5-2.4,5.7-3.6,8.9-3.6c3.2,0,6.5,1.2,8.9,3.7l204.5,204.5c2.4,2.4,3.7,5.6,3.7,8.9c0,3.4-1.3,6.6-3.7,8.9l-2.9,2.9
			C491.3,498.8,488.1,500,484.8,500z"/>
		<path id="XMLID_34_" class="st5" d="M472.9,475.6L281.2,284c-28.4,27.4-65.7,42.4-105.3,42.4c-83.6,0-151.5-67.7-151.5-151
			s68-151,151.5-151s151.5,67.7,151.5,151c0,23.5-5.3,46-15.6,66.9l-3.5-1.7c10.1-20.4,15.3-42.3,15.3-65.2
			c0-81.1-66.2-147.1-147.7-147.1S28.2,94.3,28.2,175.4s66.2,147.1,147.7,147.1c39.2,0,76.1-15.1,104-42.6l1.4-1.4l194.4,194.3
			L472.9,475.6z"/>
	</g>
</g>
<g id="Capa_2">
	<path class="st6" d="M398.3,418.3c-5.1,0-10.2-2-14.1-5.9L268.2,296.5c-19.7,14-43,21.2-68.4,21.2c-65,0-117.9-52.9-117.9-117.9
		S134.8,81.8,199.8,81.8c65,0,117.9,52.9,117.9,117.9c0,9.7-0.9,18.8-2.7,27.1c-2.3,10.8-13,17.6-23.8,15.3
		c-10.8-2.3-17.6-13-15.3-23.8c1.2-5.5,1.8-11.8,1.8-18.6c0-43-35-77.9-77.9-77.9c-43,0-77.9,35-77.9,77.9s35,77.9,77.9,77.9
		c21.9,0,40.5-7.6,55.4-22.5c3.8-3.8,8.8-5.9,14.1-5.9c5.3,0,10.4,2.1,14.1,5.9l128.9,128.9c7.8,7.8,7.8,20.5,0,28.3
		C408.5,416.3,403.4,418.3,398.3,418.3z"/>
	<linearGradient id="SVGID_1_" gradientUnits="userSpaceOnUse" x1="66.0347" y1="262.0417" x2="566.0347" y2="262.0417">
		<stop  offset="0" style="stop-color:#4CA2E8"/>
		<stop  offset="1" style="stop-color:#00A7AA"/>
	</linearGradient>
	<path class="st7" d="M543.3,512c-5.8,0-11.6-2.2-16.1-6.7L390.9,369c-35.2,28.4-77.2,42.7-125,42.7c-53.4,0-103.6-20.8-141.3-58.5
		C86.8,315.5,66,265.3,66,211.9s20.8-103.6,58.5-141.3C162.3,32.8,212.5,12,265.9,12c51,0,99.6,19.2,136.8,54.1
		c37,34.7,59.2,81.7,62.6,132.2c0.8,12.5-8.6,23.4-21.2,24.2c-12.5,0.8-23.4-8.6-24.2-21.2c-2.6-39-19.8-75.3-48.4-102.1
		c-28.7-26.9-66.2-41.8-105.7-41.8c-85.1,0-154.4,69.3-154.4,154.4c0,85.1,69.3,154.4,154.4,154.4c43.2,0,80.2-15,109.8-44.6
		c4.3-4.3,10-6.7,16.1-6.7s11.8,2.4,16.1,6.7l151.6,151.6c8.9,8.9,8.9,23.3,0,32.1C554.9,509.8,549.1,512,543.3,512z"/>
	<path id="XMLID_2_" class="st6" d="M397.4,207.3C392,126.1,324.5,62,241.9,62C155.8,62,86,131.8,86,217.9s69.7,155.9,155.9,155.9
		c45.1,0,82-16.4,110.7-45.1L486,462"/>
</g>
</svg>
