<?xml version="1.0" encoding="utf-8"?>
<!-- Generator: Adobe Illustrator 19.0.0, SVG Export Plug-In . SVG Version: 6.00 Build 0)  -->
<svg version="1.1"
	 id="svg8" sodipodi:docname="logo.svg" inkscape:version="0.92.1 r" xmlns:inkscape="http://www.inkscape.org/namespaces/inkscape" xmlns:svg="http://www.w3.org/2000/svg" xmlns:dc="http://purl.org/dc/elements/1.1/" xmlns:sodipodi="http://sodipodi.sourceforge.net/DTD/sodipodi-0.dtd" xmlns:rdf="http://www.w3.org/1999/02/22-rdf-syntax-ns#" xmlns:cc="http://creativecommons.org/ns#"
	 xmlns="http://www.w3.org/2000/svg" xmlns:xlink="http://www.w3.org/1999/xlink" x="0px" y="0px"
	 viewBox="-647.8 2585.8 187.9 190.5" style="enable-background:new -647.8 2585.8 187.9 190.5;" xml:space="preserve">
<style type="text/css">
	.st0{fill:#CCCCCC;}
	.st1{fill:#FFFFFF;}
	.st2{fill:#939393;}
</style>
<sodipodi:namedview  inkscape:document-units="mm" inkscape:window-maximized="0" inkscape:current-layer="layer1" inkscape:window-y="18" inkscape:window-x="0" inkscape:window-height="729" inkscape:window-width="1362" inkscape:pageshadow="2" inkscape:pageopacity="0.0" bordercolor="#666666" inkscape:zoom="0.98994949" pagecolor="#ffffff" inkscape:cx="330.14306" showgrid="false" inkscape:cy="696.99348" borderopacity="1.0" id="base">
	</sodipodi:namedview>
<g id="layer1" inkscape:groupmode="layer" inkscape:label="Layer 1">
	<path class="st0" d="M-553.9,2685.8c-2.6,0-5.3,0.1-7.9,0.2c-0.7,5.9-0.4,12.4,1,18.9c2.8,13.5,9.7,24.9,18,29.7l3.4,2l-3.7,1.1
		c-0.3,0.1-0.6,0.2-0.9,0.2c-1.3,0.3-2.6,0.4-3.9,0.4c-15.2,0-30.7-18.8-35.9-43.7c-0.4-2.1-0.8-4.2-1.1-6.3
		c-36.6,6.2-62.9,23-62.9,42.7c0,25,42.1,45.3,93.9,45.3s93.9-20.3,93.9-45.3C-459.9,2706.1-502,2685.8-553.9,2685.8z"/>
	<path class="st1" d="M-551.2,2726.8c2.5,3.3,5.4,6,8.4,7.8l3.4,2l-3.7,1.1c-0.3,0.1-0.6,0.2-0.9,0.2c-1.3,0.3-2.6,0.4-3.9,0.4
		c-7.2,0-14.4-4.2-20.6-11.2c-29.6,1.9-55.9,10.5-70.3,23.3c15.5,15.8,48.6,25.9,84.9,25.9c34.5,0,66.2-9.1,82.6-23.7
		C-486.1,2737.6-516.9,2727.7-551.2,2726.8z"/>
	<path id="path69" class="st2" d="M-556,2741.8c-28.2,0-54.9,6.1-72.8,16.7c17.7,11.2,45.3,17.9,74.6,17.9c28.2,0,55.2-6,73-16.6
		C-498.8,2748.5-526.7,2741.8-556,2741.8z"/>
	<path id="path14-3_2_" inkscape:connector-curvature="0" class="st1" d="M-579.2,2653.8c-5,10.5-6.1,25.4-3,40.4
		c5.6,26.4,22.4,45.2,37.7,42c0,0,0,0,0,0c0.3-0.1,0.5-0.1,0.8-0.2c-8.6-5.1-15.8-16.9-18.8-30.8c-2-9.8-1.8-19.6,0.7-27.5
		c5.3,3.7,10.8,5.1,15.9,4.1c5.9-1.3,10.9-5.7,14.3-12.7l0.2-0.5c5-10.5,6.1-25.4,3-40.4c-5.6-26.4-22.4-45.2-37.7-42c0,0,0,0,0,0
		l0,0c-0.3,0.1-0.5,0.1-0.8,0.2c8.6,5.1,15.8,16.9,18.8,30.8c2,9.8,1.8,19.6-0.7,27.5c-5.3-3.7-10.8-5.1-15.9-4.1
		c-5.9,1.3-10.9,5.7-14.3,12.7L-579.2,2653.8z"/>
</g>
</svg>
