<?xml version="1.0" encoding="utf-8"?>
<!-- Generator: Adobe Illustrator 16.0.0, SVG Export Plug-In . SVG Version: 6.00 Build 0)  -->
<!DOCTYPE svg PUBLIC "-//W3C//DTD SVG 1.1//EN" "http://www.w3.org/Graphics/SVG/1.1/DTD/svg11.dtd">
<svg version="1.1" id="Capa_1" xmlns="http://www.w3.org/2000/svg" xmlns:xlink="http://www.w3.org/1999/xlink" x="0px" y="0px"
	 width="612px" height="792px" viewBox="0 0 612 792" enable-background="new 0 0 612 792" xml:space="preserve">
<g>
	<g>
		<path fill-rule="evenodd" clip-rule="evenodd" fill="#FEFEFE" d="M526.908,616.908c-146.328,0-292.618,0-438.871,0
			c0-146.328,0-292.618,0-438.871c146.327,0,292.617,0,438.871,0C526.908,324.364,526.908,470.654,526.908,616.908z"/>
		<path fill-rule="evenodd" clip-rule="evenodd" fill="#EB7404" d="M252.966,366.912c13.69,4.55,26.811,6.549,40.274,2.833
			c1.257,1.905,0.716,3.771,0.718,5.505c0.04,30.323,0.099,60.644-0.06,90.965c-0.02,3.721,1.117,5.629,4.54,7.034
			c7.287,2.99,14.816,5.009,22.605,5.511c22.556,1.451,44.435-1.411,64.913-11.624c29.6-14.762,48.789-38.025,55.675-70.529
			c5.808-27.417-0.857-51.884-19.407-73.115c-17.856-20.436-40.483-33.574-65.32-43.424c-15.438-6.123-31.52-9.913-47.798-12.966
			c-16.505-3.095-33.095-5.229-49.935-5.022c-18.49,0.228-36.654,2.813-54.589,7.22c-2.664,0.654-5.231,1.938-8.833,1.567
			c5.136-3.227,10.226-4.97,15.21-6.841c18.669-7.009,37.936-11.601,57.711-14.228c13.526-1.796,27.084-3.346,40.714-2.715
			c48.69,2.256,93.786,15.356,132.642,45.89c20.881,16.407,37.124,36.609,46.45,61.81c3.631,9.814,5.866,19.931,6.69,30.449
			c2.762,35.208-9.672,64.829-33.22,90.14c-23.719,25.496-53.459,40.302-87.242,47.745c-17.883,3.939-35.956,4.842-54.044,3.659
			c-20.883-1.365-41.468-4.672-60.722-13.837c-5.14-2.447-7.183-5.156-7.14-11.125c0.309-42.981,0.166-85.967,0.166-128.949
			C252.966,371.045,252.966,369.228,252.966,366.912z"/>
		<path fill-rule="evenodd" clip-rule="evenodd" fill="#707173" d="M248.538,273.162c-8.044,3.022-15.818,5.65-23.362,8.987
			c-11.199,4.955-21.529,11.255-31.261,18.665c-9.136,6.956-17.429,14.684-23.404,24.569c-8.471,14.015-14.05,29.106-16.325,45.382
			c-3.213,22.989,0.881,44.794,10.337,65.799c5.646,12.538,12.867,24.057,21.583,34.681c3.771,4.599,7.327,9.389,11.642,13.494
			c10.555,10.043,22.331,18.456,34.906,25.781c15.547,9.058,32.347,15.029,49.609,19.683c10.698,2.882,21.681,4.485,32.726,5.653
			c12.445,1.316,24.895,1.138,37.362,0.8c1.133-0.031,2.339-0.289,3.678,0.744c-6.427,2.242-12.919,3.312-19.325,4.567
			c-21.458,4.205-43.176,5.289-64.951,4.045c-21.106-1.207-41.565-5.738-61.174-13.823c-12.848-5.298-25.04-11.845-36.133-20.188
			c-30.329-22.808-50.696-52.32-58.343-89.789c-4.979-24.401-3.243-48.573,6.034-71.812c6.785-16.996,17.301-31.643,31.209-43.567
			c18.45-15.819,39.997-25.357,63.731-30.188c9.744-1.984,19.502-3.73,29.493-3.648
			C247.226,273.003,247.882,273.104,248.538,273.162z"/>
		<path fill-rule="evenodd" clip-rule="evenodd" fill="#EB7404" d="M272.312,292.648c13.274,0.237,25.004,4.359,34.732,13.677
			c18.3,17.53,12.289,42.431-9.655,51.806c-20.09,8.582-46.131,1.549-58.225-14.241c-11.521-15.042-8.409-34.213,7.574-44.437
			C254.531,294.47,263.138,292.491,272.312,292.648z"/>
	</g>
</g>
</svg>
