<?xml version="1.0" encoding="utf-8"?>
<!-- Generator: Adobe Illustrator 19.0.0, SVG Export Plug-In . SVG Version: 6.00 Build 0)  -->
<svg version="1.1" xmlns="http://www.w3.org/2000/svg" xmlns:xlink="http://www.w3.org/1999/xlink" x="0px" y="0px"
	 viewBox="-1167 6926.7 1488.2 1052.4" style="enable-background:new -1167 6926.7 1488.2 1052.4;" xml:space="preserve">
<style type="text/css">
	.st0{fill:#444444;}
	.st1{fill:#FFFFFF;}
	.st2{display:none;}
	.st3{display:inline;fill:#FFFFFF;}
	.st4{clip-path:url(#SVGID_3_);}
	.st5{fill:#FFFFFF;stroke:#000000;stroke-width:0.5;}
	.st6{fill:#FFFFFF;stroke:#231F20;stroke-width:0.25;}
	.st7{fill:#FFFFFF;stroke:#231F20;stroke-width:0.15;}
	.st8{fill:#FFFFFF;stroke:#000000;stroke-width:0.75;}
	.st9{fill:#FFFFFF;stroke:#231F20;stroke-width:0.25;stroke-dasharray:1,1,1,1;}
	.st10{fill:#FFFFFF;stroke:#221F1F;stroke-width:0.25;}
	.st11{fill:#FFFFFF;stroke:#221F1F;stroke-width:0.15;}
	.st12{fill:#FFFFFF;stroke:#000000;stroke-width:0.25;}
	.st13{fill:#FFFFFF;stroke:#231F20;stroke-width:0.5;}
	.st14{fill:#FFFFFF;stroke:#231F20;stroke-width:0.5;stroke-dasharray:2,1;}
	.st15{fill:#FFFFFF;stroke:#231F20;}
	.st16{clip-path:url(#SVGID_5_);}
	.st17{clip-path:url(#SVGID_28_);}
	.st18{clip-path:url(#SVGID_29_);}
	.st19{clip-path:url(#SVGID_30_);}
	.st20{clip-path:url(#SVGID_31_);}
	.st21{clip-path:url(#SVGID_32_);}
	.st22{clip-path:url(#SVGID_33_);}
	.st23{clip-path:url(#SVGID_34_);}
	.st24{clip-path:url(#SVGID_35_);}
	.st25{clip-path:url(#SVGID_36_);}
	.st26{clip-path:url(#SVGID_37_);}
	.st27{clip-path:url(#SVGID_38_);}
	.st28{clip-path:url(#SVGID_39_);}
	.st29{clip-path:url(#SVGID_40_);}
	.st30{clip-path:url(#SVGID_41_);}
	.st31{clip-path:url(#SVGID_42_);}
	.st32{clip-path:url(#SVGID_43_);}
	.st33{clip-path:url(#SVGID_44_);}
	.st34{clip-path:url(#SVGID_45_);}
	.st35{clip-path:url(#SVGID_46_);}
	.st36{clip-path:url(#SVGID_47_);}
	.st37{clip-path:url(#SVGID_48_);}
	.st38{clip-path:url(#SVGID_49_);fill:#4CA2E8;}
	.st39{clip-path:url(#SVGID_51_);}
	.st40{clip-path:url(#SVGID_53_);}
	.st41{clip-path:url(#SVGID_55_);}
	.st42{clip-path:url(#SVGID_57_);}
	.st43{fill:#777777;}
	.st44{font-family:'AvenirNext-UltraLight';}
	.st45{font-size:48.6745px;}
	.st46{clip-path:url(#SVGID_59_);}
	.st47{font-family:'AvenirNext-Regular';}
	.st48{font-size:12.1686px;}
	.st49{display:none;fill:#666666;enable-background:new    ;}
	.st50{font-family:'TypoStyleLightDemo';}
	.st51{font-size:28.0786px;}
</style>
<g id="Capa_1">
	<g id="Fondo">
		<rect x="-1167" y="6926.7" class="st0" width="1488.2" height="1052.4"/>
	</g>
	<g id="Fondo_camisas">
		<polygon class="st1" points="-992.2,7115 -996,7117.1 -994.7,7806.9 -973.6,7812.4 -550,7517 -550,7232.6 -550,7124.4 
			-553.4,7120.3 -560.6,7120.6 -696.2,7054.3 -696.6,7001.3 -730.1,6994.2 -855.6,7001.1 -858.6,7017.9 -855.9,7037.6 
			-896.8,7145.1 		"/>
		<path class="st1" d="M-956.8,7033"/>
		<polyline class="st1" points="-309.1,7142.6 -314.6,7145.6 -320,7159 -306.5,7568.5 -276.9,7760.9 -265.8,7770.9 -33,7808.4 
			145.3,7750.6 206.5,7467.7 180.8,7146 127.3,7130.6 -310.8,7143.5 -314.6,7145.6 		"/>
	</g>
	
		<g id="svg2" sodipodi:docname="OverallShirtDetails.ai" inkscape:version="0.48.2 r9819" xmlns:inkscape="http://www.inkscape.org/namespaces/inkscape" xmlns:svg="http://www.w3.org/2000/svg" xmlns:dc="http://purl.org/dc/elements/1.1/" xmlns:sodipodi="http://sodipodi.sourceforge.net/DTD/sodipodi-0.dtd" xmlns:rdf="http://www.w3.org/1999/02/22-rdf-syntax-ns#" xmlns:cc="http://creativecommons.org/ns#">
		
			<sodipodi:namedview  inkscape:window-maximized="1" inkscape:current-layer="g3953" inkscape:window-y="-4" inkscape:window-x="-4" inkscape:window-height="1061" inkscape:window-width="1920" inkscape:pageshadow="2" inkscape:pageopacity="0" gridtolerance="10" bordercolor="#666666" inkscape:zoom="0.63429547" pagecolor="#ffffff" objecttolerance="10" inkscape:cx="1025.6394" showgrid="false" inkscape:cy="578.00127" borderopacity="1" guidetolerance="10" id="namedview4">
			</sodipodi:namedview>
		<g id="g10" transform="matrix(1.25,0,0,-1.25,0,1052.3625)" inkscape:groupmode="layer" inkscape:label="OverallShirtDetails">
			<g id="g3953" transform="matrix(1.4056783,0,0,1.4056783,-232.27183,-153.23217)">
				<g id="g40">
					<g>
						<g class="st2">
							<polygon id="SVGID_1_" class="st3" points="-1114.9,-2781.5 977,-2781.5 977,-2781.5 							"/>
						</g>
						<g>
							<g>
								<defs>
									<rect id="SVGID_2_" x="-3298.2" y="-5804.8" width="6458.6" height="4567.2"/>
								</defs>
								<clipPath id="SVGID_3_">
									<use xlink:href="#SVGID_2_"  style="overflow:visible;"/>
								</clipPath>
								<g id="g42" class="st4">
									<g id="g536" transform="translate(513.3008,597.9316)">
										<path id="path538" inkscape:connector-curvature="0" class="st5" d="M-664.2-3942.1l-70.1,35.9l-24.1,0.3l-7,0.1
											c-0.1-6.6-3.8-13.1-11.3-14.5c-2.2-4.1-7.7,2.4-13.8,2.4c-6.8,0-9.9-5.8-11.9-0.9h-0.1c-9,0-13.8,6.6-14.4,13.6h-3.2
											l-24.9,0.3l-69.1-35c0,0,8.5-51.1,7.1-78.7c-1.4-27.7-2.1-39-1.4-51.1c0.7-12.1,2.8-95.7,2.8-95.7l-4.2-179.3
											c0,0,24.5,2.7,33.2-8.4c8.7-11.1,11.7-10.5,14.1-18.2c2.4-7.8,22.7-13.8,33.8-14.4c11.1-0.6,28-0.9,28-0.9l0.1-3.9
											l57.7,0.4c0,0,22.6,4.7,26.8,20.2c0,0,20.5,31.8,45.2,24.4l-0.3,9.5l-2.1,159.7c0,0-10.9,0-7.9,53.6c0,0,8.7,65,10.9,70.6
											c0,0-3.9,49.9,2.2,81.4C-668.1-3970.7-666.4-3944.3-664.2-3942.1L-664.2-3942.1z"/>
									</g>
									<g id="g48" transform="translate(386.668,188.5166)">
										<path id="path50" inkscape:connector-curvature="0" class="st1" d="M-664.2-3942.1c0-4.1-0.4-7.5-0.9-7.5
											s-0.9,3.3-0.9,7.5c0,4.1,0.4,7.5,0.9,7.5S-664.2-3937.9-664.2-3942.1"/>
									</g>
									<g id="g52" transform="translate(386.668,188.5166)">
										<path id="path54" inkscape:connector-curvature="0" class="st6" d="M-664.2-3942.1c0-4.1-0.4-7.5-0.9-7.5
											s-0.9,3.3-0.9,7.5c0,4.1,0.4,7.5,0.9,7.5S-664.2-3937.9-664.2-3942.1z"/>
									</g>
									<g id="g56" transform="translate(390.8457,186.9668)">
										<path id="path58" inkscape:connector-curvature="0" class="st1" d="M-664.2-3942.1c0-3.1-2.3-5.7-5.1-5.7
											c-2.8,0-5.1,2.5-5.1,5.7c0,3.1,2.3,5.7,5.1,5.7C-666.5-3936.4-664.2-3938.9-664.2-3942.1"/>
									</g>
									<g id="g60" transform="translate(390.8457,186.9668)">
										<path id="path62" inkscape:connector-curvature="0" class="st6" d="M-664.2-3942.1c0-3.1-2.3-5.7-5.1-5.7
											c-2.8,0-5.1,2.5-5.1,5.7c0,3.1,2.3,5.7,5.1,5.7C-666.5-3936.4-664.2-3938.9-664.2-3942.1z"/>
									</g>
									<g id="g64" transform="translate(388.5781,187.1094)">
										<path id="path66" inkscape:connector-curvature="0" class="st1" d="M-664.2-3942.1c0-1.7-1.2-3-2.7-3s-2.7,1.4-2.7,3
											c0,1.7,1.2,3,2.7,3C-665.4-3939-664.2-3940.4-664.2-3942.1"/>
									</g>
									<g id="g68" transform="translate(388.5781,187.1094)">
										<path id="path70" inkscape:connector-curvature="0" class="st6" d="M-664.2-3942.1c0-1.7-1.2-3-2.7-3s-2.7,1.4-2.7,3
											c0,1.7,1.2,3,2.7,3C-665.4-3939-664.2-3940.4-664.2-3942.1z"/>
									</g>
									<g id="g72" transform="translate(387.5117,188.1582)">
										<path id="path74" inkscape:connector-curvature="0" class="st1" d="M-664.2-3942.1c0-0.4-0.3-0.7-0.6-0.7
											c-0.3,0-0.6,0.3-0.6,0.7s0.3,0.7,0.6,0.7C-664.5-3941.4-664.2-3941.7-664.2-3942.1"/>
									</g>
									<g id="g76" transform="translate(387.5117,188.1582)">
										<path id="path78" inkscape:connector-curvature="0" class="st7" d="M-664.2-3942.1c0-0.4-0.3-0.7-0.6-0.7
											c-0.3,0-0.6,0.3-0.6,0.7s0.3,0.7,0.6,0.7C-664.5-3941.4-664.2-3941.7-664.2-3942.1z"/>
									</g>
									<g id="g80" transform="translate(385.6113,188.1582)">
										<path id="path82" inkscape:connector-curvature="0" class="st1" d="M-664.2-3942.1c0-0.4-0.3-0.7-0.6-0.7
											c-0.4,0-0.6,0.3-0.6,0.7s0.3,0.7,0.6,0.7C-664.5-3941.4-664.2-3941.7-664.2-3942.1"/>
									</g>
									<g id="g84" transform="translate(385.6113,188.1582)">
										<path id="path86" inkscape:connector-curvature="0" class="st7" d="M-664.2-3942.1c0-0.4-0.3-0.7-0.6-0.7
											c-0.4,0-0.6,0.3-0.6,0.7s0.3,0.7,0.6,0.7C-664.5-3941.4-664.2-3941.7-664.2-3942.1z"/>
									</g>
									<g id="g88" transform="translate(387.5117,186.0615)">
										<path id="path90" inkscape:connector-curvature="0" class="st1" d="M-664.2-3942.1c0-0.4-0.3-0.7-0.6-0.7
											c-0.3,0-0.6,0.3-0.6,0.7s0.3,0.7,0.6,0.7C-664.5-3941.4-664.2-3941.7-664.2-3942.1"/>
									</g>
									<g id="g92" transform="translate(387.5117,186.0615)">
										<path id="path94" inkscape:connector-curvature="0" class="st7" d="M-664.2-3942.1c0-0.4-0.3-0.7-0.6-0.7
											c-0.3,0-0.6,0.3-0.6,0.7s0.3,0.7,0.6,0.7C-664.5-3941.4-664.2-3941.7-664.2-3942.1z"/>
									</g>
									<g id="g96" transform="translate(385.6113,186.0615)">
										<path id="path98" inkscape:connector-curvature="0" class="st1" d="M-664.2-3942.1c0-0.4-0.3-0.7-0.6-0.7
											c-0.4,0-0.6,0.3-0.6,0.7s0.3,0.7,0.6,0.7C-664.5-3941.4-664.2-3941.7-664.2-3942.1"/>
									</g>
									<g id="g100" transform="translate(385.6113,186.0615)">
										<path id="path102" inkscape:connector-curvature="0" class="st7" d="M-664.2-3942.1c0-0.4-0.3-0.7-0.6-0.7
											c-0.4,0-0.6,0.3-0.6,0.7s0.3,0.7,0.6,0.7C-664.5-3941.4-664.2-3941.7-664.2-3942.1z"/>
									</g>
									<g id="g104" transform="translate(386.752,250.1777)">
										<path id="path106" inkscape:connector-curvature="0" class="st1" d="M-664.2-3942.1c0-4.1-0.4-7.5-0.9-7.5
											s-0.9,3.3-0.9,7.5s0.4,7.5,0.9,7.5S-664.2-3937.9-664.2-3942.1"/>
									</g>
									<g id="g108" transform="translate(386.752,250.1777)">
										<path id="path110" inkscape:connector-curvature="0" class="st6" d="M-664.2-3942.1c0-4.1-0.4-7.5-0.9-7.5
											s-0.9,3.3-0.9,7.5s0.4,7.5,0.9,7.5S-664.2-3937.9-664.2-3942.1z"/>
									</g>
									<g id="g112" transform="translate(390.9258,248.627)">
										<path id="path114" inkscape:connector-curvature="0" class="st1" d="M-664.2-3942.1c0-3.1-2.3-5.7-5.1-5.7
											c-2.8,0-5.1,2.5-5.1,5.7c0,3.1,2.3,5.7,5.1,5.7C-666.5-3936.4-664.2-3938.9-664.2-3942.1"/>
									</g>
									<g id="g116" transform="translate(390.9258,248.627)">
										<path id="path118" inkscape:connector-curvature="0" class="st6" d="M-664.2-3942.1c0-3.1-2.3-5.7-5.1-5.7
											c-2.8,0-5.1,2.5-5.1,5.7c0,3.1,2.3,5.7,5.1,5.7C-666.5-3936.4-664.2-3938.9-664.2-3942.1z"/>
									</g>
									<g id="g120" transform="translate(388.6582,248.7695)">
										<path id="path122" inkscape:connector-curvature="0" class="st1" d="M-664.2-3942.1c0-1.7-1.2-3-2.7-3s-2.7,1.3-2.7,3
											s1.2,3,2.7,3C-665.4-3939-664.2-3940.4-664.2-3942.1"/>
									</g>
									<g id="g124" transform="translate(388.6582,248.7695)">
										<path id="path126" inkscape:connector-curvature="0" class="st6" d="M-664.2-3942.1c0-1.7-1.2-3-2.7-3s-2.7,1.3-2.7,3
											s1.2,3,2.7,3C-665.4-3939-664.2-3940.4-664.2-3942.1z"/>
									</g>
									<g id="g128" transform="translate(387.5957,249.8184)">
										<path id="path130" inkscape:connector-curvature="0" class="st1" d="M-664.2-3942.1c0-0.4-0.3-0.7-0.6-0.7
											c-0.4,0-0.6,0.3-0.6,0.7s0.3,0.7,0.6,0.7C-664.5-3941.4-664.2-3941.7-664.2-3942.1"/>
									</g>
									<g id="g132" transform="translate(387.5957,249.8184)">
										<path id="path134" inkscape:connector-curvature="0" class="st7" d="M-664.2-3942.1c0-0.4-0.3-0.7-0.6-0.7
											c-0.4,0-0.6,0.3-0.6,0.7s0.3,0.7,0.6,0.7C-664.5-3941.4-664.2-3941.7-664.2-3942.1z"/>
									</g>
									<g id="g136" transform="translate(385.6943,249.8184)">
										<path id="path138" inkscape:connector-curvature="0" class="st1" d="M-664.2-3942.1c0-0.4-0.3-0.7-0.6-0.7
											c-0.3,0-0.6,0.3-0.6,0.7s0.3,0.7,0.6,0.7C-664.5-3941.4-664.2-3941.7-664.2-3942.1"/>
									</g>
									<g id="g140" transform="translate(385.6943,249.8184)">
										<path id="path142" inkscape:connector-curvature="0" class="st7" d="M-664.2-3942.1c0-0.4-0.3-0.7-0.6-0.7
											c-0.3,0-0.6,0.3-0.6,0.7s0.3,0.7,0.6,0.7C-664.5-3941.4-664.2-3941.7-664.2-3942.1z"/>
									</g>
									<g id="g144" transform="translate(387.5957,247.7217)">
										<path id="path146" inkscape:connector-curvature="0" class="st1" d="M-664.2-3942.1c0-0.4-0.3-0.7-0.6-0.7
											c-0.4,0-0.6,0.3-0.6,0.7s0.3,0.7,0.6,0.7C-664.5-3941.4-664.2-3941.7-664.2-3942.1"/>
									</g>
									<g id="g148" transform="translate(387.5957,247.7217)">
										<path id="path150" inkscape:connector-curvature="0" class="st7" d="M-664.2-3942.1c0-0.4-0.3-0.7-0.6-0.7
											c-0.4,0-0.6,0.3-0.6,0.7s0.3,0.7,0.6,0.7C-664.5-3941.4-664.2-3941.7-664.2-3942.1z"/>
									</g>
									<g id="g152" transform="translate(385.6943,247.7217)">
										<path id="path154" inkscape:connector-curvature="0" class="st1" d="M-664.2-3942.1c0-0.4-0.3-0.7-0.6-0.7
											c-0.3,0-0.6,0.3-0.6,0.7s0.3,0.7,0.6,0.7C-664.5-3941.4-664.2-3941.7-664.2-3942.1"/>
									</g>
									<g id="g156" transform="translate(385.6943,247.7217)">
										<path id="path158" inkscape:connector-curvature="0" class="st7" d="M-664.2-3942.1c0-0.4-0.3-0.7-0.6-0.7
											c-0.3,0-0.6,0.3-0.6,0.7s0.3,0.7,0.6,0.7C-664.5-3941.4-664.2-3941.7-664.2-3942.1z"/>
									</g>
									<g id="g160" transform="translate(386.832,311.8398)">
										<path id="path162" inkscape:connector-curvature="0" class="st1" d="M-664.2-3942.1c0-4.1-0.4-7.5-0.9-7.5
											s-0.9,3.3-0.9,7.5c0,4.1,0.4,7.5,0.9,7.5S-664.2-3937.9-664.2-3942.1"/>
									</g>
									<g id="g164" transform="translate(386.832,311.8398)">
										<path id="path166" inkscape:connector-curvature="0" class="st6" d="M-664.2-3942.1c0-4.1-0.4-7.5-0.9-7.5
											s-0.9,3.3-0.9,7.5c0,4.1,0.4,7.5,0.9,7.5S-664.2-3937.9-664.2-3942.1z"/>
									</g>
									<g id="g168" transform="translate(391.0059,310.2871)">
										<path id="path170" inkscape:connector-curvature="0" class="st1" d="M-664.2-3942.1c0-3.1-2.3-5.7-5.1-5.7
											c-2.8,0-5.1,2.5-5.1,5.7s2.3,5.7,5.1,5.7C-666.5-3936.4-664.2-3938.9-664.2-3942.1"/>
									</g>
									<g id="g172" transform="translate(391.0059,310.2871)">
										<path id="path174" inkscape:connector-curvature="0" class="st6" d="M-664.2-3942.1c0-3.1-2.3-5.7-5.1-5.7
											c-2.8,0-5.1,2.5-5.1,5.7s2.3,5.7,5.1,5.7C-666.5-3936.4-664.2-3938.9-664.2-3942.1z"/>
									</g>
									<g id="g176" transform="translate(388.7422,310.4316)">
										<path id="path178" inkscape:connector-curvature="0" class="st1" d="M-664.2-3942.1c0-1.7-1.2-3-2.7-3s-2.7,1.4-2.7,3
											c0,1.7,1.2,3,2.7,3C-665.4-3939-664.2-3940.4-664.2-3942.1"/>
									</g>
									<g id="g180" transform="translate(388.7422,310.4316)">
										<path id="path182" inkscape:connector-curvature="0" class="st6" d="M-664.2-3942.1c0-1.7-1.2-3-2.7-3s-2.7,1.4-2.7,3
											c0,1.7,1.2,3,2.7,3C-665.4-3939-664.2-3940.4-664.2-3942.1z"/>
									</g>
									<g id="g184" transform="translate(387.6748,311.4795)">
										<path id="path186" inkscape:connector-curvature="0" class="st1" d="M-664.2-3942.1c0-0.4-0.3-0.7-0.6-0.7
											c-0.3,0-0.6,0.3-0.6,0.7s0.3,0.7,0.6,0.7C-664.5-3941.4-664.2-3941.7-664.2-3942.1"/>
									</g>
									<g id="g188" transform="translate(387.6748,311.4795)">
										<path id="path190" inkscape:connector-curvature="0" class="st7" d="M-664.2-3942.1c0-0.4-0.3-0.7-0.6-0.7
											c-0.3,0-0.6,0.3-0.6,0.7s0.3,0.7,0.6,0.7C-664.5-3941.4-664.2-3941.7-664.2-3942.1z"/>
									</g>
									<g id="g192" transform="translate(385.7744,311.4795)">
										<path id="path194" inkscape:connector-curvature="0" class="st1" d="M-664.2-3942.1c0-0.4-0.3-0.7-0.6-0.7
											c-0.3,0-0.6,0.3-0.6,0.7s0.3,0.7,0.6,0.7C-664.5-3941.4-664.2-3941.7-664.2-3942.1"/>
									</g>
									<g id="g196" transform="translate(385.7744,311.4795)">
										<path id="path198" inkscape:connector-curvature="0" class="st7" d="M-664.2-3942.1c0-0.4-0.3-0.7-0.6-0.7
											c-0.3,0-0.6,0.3-0.6,0.7s0.3,0.7,0.6,0.7C-664.5-3941.4-664.2-3941.7-664.2-3942.1z"/>
									</g>
									<g id="g200" transform="translate(387.6748,309.3828)">
										<path id="path202" inkscape:connector-curvature="0" class="st1" d="M-664.2-3942.1c0-0.4-0.3-0.7-0.6-0.7
											c-0.3,0-0.6,0.3-0.6,0.7s0.3,0.7,0.6,0.7C-664.5-3941.4-664.2-3941.7-664.2-3942.1"/>
									</g>
									<g id="g204" transform="translate(387.6748,309.3828)">
										<path id="path206" inkscape:connector-curvature="0" class="st7" d="M-664.2-3942.1c0-0.4-0.3-0.7-0.6-0.7
											c-0.3,0-0.6,0.3-0.6,0.7s0.3,0.7,0.6,0.7C-664.5-3941.4-664.2-3941.7-664.2-3942.1z"/>
									</g>
									<g id="g208" transform="translate(385.7744,309.3828)">
										<path id="path210" inkscape:connector-curvature="0" class="st1" d="M-664.2-3942.1c0-0.4-0.3-0.7-0.6-0.7
											c-0.3,0-0.6,0.3-0.6,0.7s0.3,0.7,0.6,0.7C-664.5-3941.4-664.2-3941.7-664.2-3942.1"/>
									</g>
									<g id="g212" transform="translate(385.7744,309.3828)">
										<path id="path214" inkscape:connector-curvature="0" class="st7" d="M-664.2-3942.1c0-0.4-0.3-0.7-0.6-0.7
											c-0.3,0-0.6,0.3-0.6,0.7s0.3,0.7,0.6,0.7C-664.5-3941.4-664.2-3941.7-664.2-3942.1z"/>
									</g>
									<g id="g216" transform="translate(386.9121,373.5)">
										<path id="path218" inkscape:connector-curvature="0" class="st1" d="M-664.2-3942.1c0-4.1-0.4-7.5-0.9-7.5
											s-0.9,3.3-0.9,7.5c0,4.1,0.4,7.5,0.9,7.5S-664.2-3937.9-664.2-3942.1"/>
									</g>
									<g id="g220" transform="translate(386.9121,373.5)">
										<path id="path222" inkscape:connector-curvature="0" class="st6" d="M-664.2-3942.1c0-4.1-0.4-7.5-0.9-7.5
											s-0.9,3.3-0.9,7.5c0,4.1,0.4,7.5,0.9,7.5S-664.2-3937.9-664.2-3942.1z"/>
									</g>
									<g id="g224" transform="translate(391.0859,371.9482)">
										<path id="path226" inkscape:connector-curvature="0" class="st1" d="M-664.2-3942.1c0-3.1-2.3-5.7-5.1-5.7
											c-2.8,0-5.1,2.5-5.1,5.7c0,3.1,2.3,5.7,5.1,5.7C-666.5-3936.4-664.2-3938.9-664.2-3942.1"/>
									</g>
									<g id="g228" transform="translate(391.0859,371.9482)">
										<path id="path230" inkscape:connector-curvature="0" class="st6" d="M-664.2-3942.1c0-3.1-2.3-5.7-5.1-5.7
											c-2.8,0-5.1,2.5-5.1,5.7c0,3.1,2.3,5.7,5.1,5.7C-666.5-3936.4-664.2-3938.9-664.2-3942.1z"/>
									</g>
									<g id="g232" transform="translate(388.8242,372.0928)">
										<path id="path234" inkscape:connector-curvature="0" class="st1" d="M-664.2-3942.1c0-1.7-1.2-3-2.7-3s-2.7,1.4-2.7,3
											s1.2,3,2.7,3C-665.4-3939-664.2-3940.4-664.2-3942.1"/>
									</g>
									<g id="g236" transform="translate(388.8242,372.0928)">
										<path id="path238" inkscape:connector-curvature="0" class="st6" d="M-664.2-3942.1c0-1.7-1.2-3-2.7-3s-2.7,1.4-2.7,3
											s1.2,3,2.7,3C-665.4-3939-664.2-3940.4-664.2-3942.1z"/>
									</g>
									<g id="g240" transform="translate(387.7568,373.1396)">
										<path id="path242" inkscape:connector-curvature="0" class="st1" d="M-664.2-3942.1c0-0.4-0.3-0.7-0.6-0.7
											c-0.3,0-0.6,0.3-0.6,0.7s0.3,0.7,0.6,0.7C-664.5-3941.4-664.2-3941.7-664.2-3942.1"/>
									</g>
									<g id="g244" transform="translate(387.7568,373.1396)">
										<path id="path246" inkscape:connector-curvature="0" class="st7" d="M-664.2-3942.1c0-0.4-0.3-0.7-0.6-0.7
											c-0.3,0-0.6,0.3-0.6,0.7s0.3,0.7,0.6,0.7C-664.5-3941.4-664.2-3941.7-664.2-3942.1z"/>
									</g>
									<g id="g248" transform="translate(385.8545,373.1396)">
										<path id="path250" inkscape:connector-curvature="0" class="st1" d="M-664.2-3942.1c0-0.4-0.3-0.7-0.6-0.7
											c-0.4,0-0.6,0.3-0.6,0.7s0.3,0.7,0.6,0.7C-664.5-3941.4-664.2-3941.7-664.2-3942.1"/>
									</g>
									<g id="g252" transform="translate(385.8545,373.1396)">
										<path id="path254" inkscape:connector-curvature="0" class="st7" d="M-664.2-3942.1c0-0.4-0.3-0.7-0.6-0.7
											c-0.4,0-0.6,0.3-0.6,0.7s0.3,0.7,0.6,0.7C-664.5-3941.4-664.2-3941.7-664.2-3942.1z"/>
									</g>
									<g id="g256" transform="translate(387.7568,371.0459)">
										<path id="path258" inkscape:connector-curvature="0" class="st1" d="M-664.2-3942.1c0-0.4-0.3-0.7-0.6-0.7
											c-0.3,0-0.6,0.3-0.6,0.7s0.3,0.7,0.6,0.7C-664.5-3941.4-664.2-3941.7-664.2-3942.1"/>
									</g>
									<g id="g260" transform="translate(387.7568,371.0459)">
										<path id="path262" inkscape:connector-curvature="0" class="st7" d="M-664.2-3942.1c0-0.4-0.3-0.7-0.6-0.7
											c-0.3,0-0.6,0.3-0.6,0.7s0.3,0.7,0.6,0.7C-664.5-3941.4-664.2-3941.7-664.2-3942.1z"/>
									</g>
									<g id="g264" transform="translate(385.8545,371.0459)">
										<path id="path266" inkscape:connector-curvature="0" class="st1" d="M-664.2-3942.1c0-0.4-0.3-0.7-0.6-0.7
											c-0.4,0-0.6,0.3-0.6,0.7s0.3,0.7,0.6,0.7C-664.5-3941.4-664.2-3941.7-664.2-3942.1"/>
									</g>
									<g id="g268" transform="translate(385.8545,371.0459)">
										<path id="path270" inkscape:connector-curvature="0" class="st7" d="M-664.2-3942.1c0-0.4-0.3-0.7-0.6-0.7
											c-0.4,0-0.6,0.3-0.6,0.7s0.3,0.7,0.6,0.7C-664.5-3941.4-664.2-3941.7-664.2-3942.1z"/>
									</g>
									<g id="g272" transform="translate(386.9961,435.1606)">
										<path id="path274" inkscape:connector-curvature="0" class="st1" d="M-664.2-3942.1c0-4.1-0.4-7.5-0.9-7.5
											s-0.9,3.3-0.9,7.5c0,4.1,0.4,7.5,0.9,7.5S-664.2-3937.9-664.2-3942.1"/>
									</g>
									<g id="g276" transform="translate(386.9961,435.1606)">
										<path id="path278" inkscape:connector-curvature="0" class="st6" d="M-664.2-3942.1c0-4.1-0.4-7.5-0.9-7.5
											s-0.9,3.3-0.9,7.5c0,4.1,0.4,7.5,0.9,7.5S-664.2-3937.9-664.2-3942.1z"/>
									</g>
									<g id="g280" transform="translate(391.1699,433.6104)">
										<path id="path282" inkscape:connector-curvature="0" class="st1" d="M-664.2-3942.1c0-3.1-2.3-5.7-5.1-5.7
											c-2.8,0-5.1,2.5-5.1,5.7c0,3.1,2.3,5.7,5.1,5.7C-666.5-3936.4-664.2-3938.9-664.2-3942.1"/>
									</g>
									<g id="g284" transform="translate(391.1699,433.6104)">
										<path id="path286" inkscape:connector-curvature="0" class="st6" d="M-664.2-3942.1c0-3.1-2.3-5.7-5.1-5.7
											c-2.8,0-5.1,2.5-5.1,5.7c0,3.1,2.3,5.7,5.1,5.7C-666.5-3936.4-664.2-3938.9-664.2-3942.1z"/>
									</g>
									<g id="g288" transform="translate(388.9043,433.7524)">
										<path id="path290" inkscape:connector-curvature="0" class="st1" d="M-664.2-3942.1c0-1.7-1.2-3-2.7-3s-2.7,1.4-2.7,3
											s1.2,3,2.7,3C-665.4-3939-664.2-3940.4-664.2-3942.1"/>
									</g>
									<g id="g292" transform="translate(388.9043,433.7524)">
										<path id="path294" inkscape:connector-curvature="0" class="st6" d="M-664.2-3942.1c0-1.7-1.2-3-2.7-3s-2.7,1.4-2.7,3
											s1.2,3,2.7,3C-665.4-3939-664.2-3940.4-664.2-3942.1z"/>
									</g>
									<g id="g296" transform="translate(387.8369,434.8018)">
										<path id="path298" inkscape:connector-curvature="0" class="st1" d="M-664.2-3942.1c0-0.4-0.3-0.7-0.6-0.7
											c-0.3,0-0.6,0.3-0.6,0.7s0.3,0.7,0.6,0.7C-664.5-3941.4-664.2-3941.7-664.2-3942.1"/>
									</g>
									<g id="g300" transform="translate(387.8369,434.8018)">
										<path id="path302" inkscape:connector-curvature="0" class="st7" d="M-664.2-3942.1c0-0.4-0.3-0.7-0.6-0.7
											c-0.3,0-0.6,0.3-0.6,0.7s0.3,0.7,0.6,0.7C-664.5-3941.4-664.2-3941.7-664.2-3942.1z"/>
									</g>
									<g id="g304" transform="translate(385.9375,434.8018)">
										<path id="path306" inkscape:connector-curvature="0" class="st1" d="M-664.2-3942.1c0-0.4-0.3-0.7-0.6-0.7
											c-0.3,0-0.6,0.3-0.6,0.7s0.3,0.7,0.6,0.7C-664.5-3941.4-664.2-3941.7-664.2-3942.1"/>
									</g>
									<g id="g308" transform="translate(385.9375,434.8018)">
										<path id="path310" inkscape:connector-curvature="0" class="st7" d="M-664.2-3942.1c0-0.4-0.3-0.7-0.6-0.7
											c-0.3,0-0.6,0.3-0.6,0.7s0.3,0.7,0.6,0.7C-664.5-3941.4-664.2-3941.7-664.2-3942.1z"/>
									</g>
									<g id="g312" transform="translate(387.8369,432.7026)">
										<path id="path314" inkscape:connector-curvature="0" class="st1" d="M-664.2-3942.1c0-0.4-0.3-0.7-0.6-0.7
											c-0.3,0-0.6,0.3-0.6,0.7s0.3,0.7,0.6,0.7C-664.5-3941.4-664.2-3941.7-664.2-3942.1"/>
									</g>
									<g id="g316" transform="translate(387.8369,432.7026)">
										<path id="path318" inkscape:connector-curvature="0" class="st7" d="M-664.2-3942.1c0-0.4-0.3-0.7-0.6-0.7
											c-0.3,0-0.6,0.3-0.6,0.7s0.3,0.7,0.6,0.7C-664.5-3941.4-664.2-3941.7-664.2-3942.1z"/>
									</g>
									<g id="g320" transform="translate(385.9375,432.7026)">
										<path id="path322" inkscape:connector-curvature="0" class="st1" d="M-664.2-3942.1c0-0.4-0.3-0.7-0.6-0.7
											c-0.3,0-0.6,0.3-0.6,0.7s0.3,0.7,0.6,0.7C-664.5-3941.4-664.2-3941.7-664.2-3942.1"/>
									</g>
									<g id="g324" transform="translate(385.9375,432.7026)">
										<path id="path326" inkscape:connector-curvature="0" class="st7" d="M-664.2-3942.1c0-0.4-0.3-0.7-0.6-0.7
											c-0.3,0-0.6,0.3-0.6,0.7s0.3,0.7,0.6,0.7C-664.5-3941.4-664.2-3941.7-664.2-3942.1z"/>
									</g>
									<g id="g328" transform="translate(387.0752,496.8184)">
										<path id="path330" inkscape:connector-curvature="0" class="st1" d="M-664.2-3942.1c0-4.1-0.4-7.5-0.9-7.5
											s-0.9,3.3-0.9,7.5c0,4.1,0.4,7.5,0.9,7.5S-664.2-3937.9-664.2-3942.1"/>
									</g>
									<g id="g332" transform="translate(387.0752,496.8184)">
										<path id="path334" inkscape:connector-curvature="0" class="st6" d="M-664.2-3942.1c0-4.1-0.4-7.5-0.9-7.5
											s-0.9,3.3-0.9,7.5c0,4.1,0.4,7.5,0.9,7.5S-664.2-3937.9-664.2-3942.1z"/>
									</g>
									<g id="g336" transform="translate(391.251,495.2686)">
										<path id="path338" inkscape:connector-curvature="0" class="st1" d="M-664.2-3942.1c0-3.1-2.3-5.7-5.1-5.7
											c-2.8,0-5.1,2.5-5.1,5.7c0,3.1,2.3,5.7,5.1,5.7C-666.5-3936.4-664.2-3938.9-664.2-3942.1"/>
									</g>
									<g id="g340" transform="translate(391.251,495.2686)">
										<path id="path342" inkscape:connector-curvature="0" class="st6" d="M-664.2-3942.1c0-3.1-2.3-5.7-5.1-5.7
											c-2.8,0-5.1,2.5-5.1,5.7c0,3.1,2.3,5.7,5.1,5.7C-666.5-3936.4-664.2-3938.9-664.2-3942.1z"/>
									</g>
									<g id="g344" transform="translate(388.9883,495.4116)">
										<path id="path346" inkscape:connector-curvature="0" class="st1" d="M-664.2-3942.1c0-1.7-1.2-3-2.7-3s-2.7,1.3-2.7,3
											s1.2,3,2.7,3C-665.4-3939-664.2-3940.4-664.2-3942.1"/>
									</g>
									<g id="g348" transform="translate(388.9883,495.4116)">
										<path id="path350" inkscape:connector-curvature="0" class="st6" d="M-664.2-3942.1c0-1.7-1.2-3-2.7-3s-2.7,1.3-2.7,3
											s1.2,3,2.7,3C-665.4-3939-664.2-3940.4-664.2-3942.1z"/>
									</g>
									<g id="g352" transform="translate(387.9219,496.4604)">
										<path id="path354" inkscape:connector-curvature="0" class="st1" d="M-664.2-3942.1c0-0.4-0.3-0.7-0.6-0.7
											c-0.4,0-0.6,0.3-0.6,0.7s0.3,0.7,0.6,0.7C-664.5-3941.4-664.2-3941.7-664.2-3942.1"/>
									</g>
									<g id="g356" transform="translate(387.9219,496.4604)">
										<path id="path358" inkscape:connector-curvature="0" class="st7" d="M-664.2-3942.1c0-0.4-0.3-0.7-0.6-0.7
											c-0.4,0-0.6,0.3-0.6,0.7s0.3,0.7,0.6,0.7C-664.5-3941.4-664.2-3941.7-664.2-3942.1z"/>
									</g>
									<g id="g360" transform="translate(386.0186,496.4604)">
										<path id="path362" inkscape:connector-curvature="0" class="st1" d="M-664.2-3942.1c0-0.4-0.3-0.7-0.6-0.7
											c-0.3,0-0.6,0.3-0.6,0.7s0.3,0.7,0.6,0.7C-664.5-3941.4-664.2-3941.7-664.2-3942.1"/>
									</g>
									<g id="g364" transform="translate(386.0186,496.4604)">
										<path id="path366" inkscape:connector-curvature="0" class="st7" d="M-664.2-3942.1c0-0.4-0.3-0.7-0.6-0.7
											c-0.3,0-0.6,0.3-0.6,0.7s0.3,0.7,0.6,0.7C-664.5-3941.4-664.2-3941.7-664.2-3942.1z"/>
									</g>
									<g id="g368" transform="translate(387.9219,494.3633)">
										<path id="path370" inkscape:connector-curvature="0" class="st1" d="M-664.2-3942.1c0-0.4-0.3-0.7-0.6-0.7
											c-0.4,0-0.6,0.3-0.6,0.7s0.3,0.7,0.6,0.7C-664.5-3941.4-664.2-3941.7-664.2-3942.1"/>
									</g>
									<g id="g372" transform="translate(387.9219,494.3633)">
										<path id="path374" inkscape:connector-curvature="0" class="st7" d="M-664.2-3942.1c0-0.4-0.3-0.7-0.6-0.7
											c-0.4,0-0.6,0.3-0.6,0.7s0.3,0.7,0.6,0.7C-664.5-3941.4-664.2-3941.7-664.2-3942.1z"/>
									</g>
									<g id="g376" transform="translate(386.0186,494.3633)">
										<path id="path378" inkscape:connector-curvature="0" class="st1" d="M-664.2-3942.1c0-0.4-0.3-0.7-0.6-0.7
											c-0.3,0-0.6,0.3-0.6,0.7s0.3,0.7,0.6,0.7C-664.5-3941.4-664.2-3941.7-664.2-3942.1"/>
									</g>
									<g id="g380" transform="translate(386.0186,494.3633)">
										<path id="path382" inkscape:connector-curvature="0" class="st7" d="M-664.2-3942.1c0-0.4-0.3-0.7-0.6-0.7
											c-0.3,0-0.6,0.3-0.6,0.7s0.3,0.7,0.6,0.7C-664.5-3941.4-664.2-3941.7-664.2-3942.1z"/>
									</g>
									<g id="g384" transform="translate(387.1563,558.479)">
										<path id="path386" inkscape:connector-curvature="0" class="st1" d="M-664.2-3942.1c0-4.1-0.4-7.5-0.9-7.5
											s-0.9,3.3-0.9,7.5c0,4.1,0.4,7.5,0.9,7.5S-664.2-3937.9-664.2-3942.1"/>
									</g>
									<g id="g388" transform="translate(387.1563,558.479)">
										<path id="path390" inkscape:connector-curvature="0" class="st6" d="M-664.2-3942.1c0-4.1-0.4-7.5-0.9-7.5
											s-0.9,3.3-0.9,7.5c0,4.1,0.4,7.5,0.9,7.5S-664.2-3937.9-664.2-3942.1z"/>
									</g>
									<g id="g392" transform="translate(391.3311,556.9287)">
										<path id="path394" inkscape:connector-curvature="0" class="st1" d="M-664.2-3942.1c0-3.1-2.3-5.7-5.1-5.7
											c-2.8,0-5.1,2.5-5.1,5.7c0,3.1,2.3,5.7,5.1,5.7C-666.5-3936.4-664.2-3938.9-664.2-3942.1"/>
									</g>
									<g id="g396" transform="translate(391.3311,556.9287)">
										<path id="path398" inkscape:connector-curvature="0" class="st6" d="M-664.2-3942.1c0-3.1-2.3-5.7-5.1-5.7
											c-2.8,0-5.1,2.5-5.1,5.7c0,3.1,2.3,5.7,5.1,5.7C-666.5-3936.4-664.2-3938.9-664.2-3942.1z"/>
									</g>
									<g id="g400" transform="translate(389.0674,557.0718)">
										<path id="path402" inkscape:connector-curvature="0" class="st1" d="M-664.2-3942.1c0-1.7-1.2-3-2.7-3s-2.7,1.4-2.7,3
											c0,1.7,1.2,3,2.7,3C-665.4-3939-664.2-3940.4-664.2-3942.1"/>
									</g>
									<g id="g404" transform="translate(389.0674,557.0718)">
										<path id="path406" inkscape:connector-curvature="0" class="st6" d="M-664.2-3942.1c0-1.7-1.2-3-2.7-3s-2.7,1.4-2.7,3
											c0,1.7,1.2,3,2.7,3C-665.4-3939-664.2-3940.4-664.2-3942.1z"/>
									</g>
									<g id="g408" transform="translate(388.001,558.1206)">
										<path id="path410" inkscape:connector-curvature="0" class="st1" d="M-664.2-3942.1c0-0.4-0.3-0.7-0.6-0.7
											c-0.4,0-0.6,0.3-0.6,0.7s0.3,0.7,0.6,0.7C-664.5-3941.4-664.2-3941.7-664.2-3942.1"/>
									</g>
									<g id="g412" transform="translate(388.001,558.1206)">
										<path id="path414" inkscape:connector-curvature="0" class="st7" d="M-664.2-3942.1c0-0.4-0.3-0.7-0.6-0.7
											c-0.4,0-0.6,0.3-0.6,0.7s0.3,0.7,0.6,0.7C-664.5-3941.4-664.2-3941.7-664.2-3942.1z"/>
									</g>
									<g id="g416" transform="translate(386.0977,558.1206)">
										<path id="path418" inkscape:connector-curvature="0" class="st1" d="M-664.2-3942.1c0-0.4-0.3-0.7-0.6-0.7
											c-0.3,0-0.6,0.3-0.6,0.7s0.3,0.7,0.6,0.7C-664.5-3941.4-664.2-3941.7-664.2-3942.1"/>
									</g>
									<g id="g420" transform="translate(386.0977,558.1206)">
										<path id="path422" inkscape:connector-curvature="0" class="st7" d="M-664.2-3942.1c0-0.4-0.3-0.7-0.6-0.7
											c-0.3,0-0.6,0.3-0.6,0.7s0.3,0.7,0.6,0.7C-664.5-3941.4-664.2-3941.7-664.2-3942.1z"/>
									</g>
									<g id="g424" transform="translate(388.001,556.0234)">
										<path id="path426" inkscape:connector-curvature="0" class="st1" d="M-664.2-3942.1c0-0.4-0.3-0.7-0.6-0.7
											c-0.4,0-0.6,0.3-0.6,0.7s0.3,0.7,0.6,0.7C-664.5-3941.4-664.2-3941.7-664.2-3942.1"/>
									</g>
									<g id="g428" transform="translate(388.001,556.0234)">
										<path id="path430" inkscape:connector-curvature="0" class="st7" d="M-664.2-3942.1c0-0.4-0.3-0.7-0.6-0.7
											c-0.4,0-0.6,0.3-0.6,0.7s0.3,0.7,0.6,0.7C-664.5-3941.4-664.2-3941.7-664.2-3942.1z"/>
									</g>
									<g id="g432" transform="translate(386.0977,556.0234)">
										<path id="path434" inkscape:connector-curvature="0" class="st1" d="M-664.2-3942.1c0-0.4-0.3-0.7-0.6-0.7
											c-0.3,0-0.6,0.3-0.6,0.7s0.3,0.7,0.6,0.7C-664.5-3941.4-664.2-3941.7-664.2-3942.1"/>
									</g>
									<g id="g436" transform="translate(386.0977,556.0234)">
										<path id="path438" inkscape:connector-curvature="0" class="st7" d="M-664.2-3942.1c0-0.4-0.3-0.7-0.6-0.7
											c-0.3,0-0.6,0.3-0.6,0.7s0.3,0.7,0.6,0.7C-664.5-3941.4-664.2-3941.7-664.2-3942.1z"/>
									</g>
									<g id="g440" transform="translate(379.6328,544.8398)">
										<path id="path442" inkscape:connector-curvature="0" class="st1" d="M-664.2-3942.1l12.8-2.2l-1.4-6l-7.8-0.7
											L-664.2-3942.1z"/>
									</g>
									<g id="g444" transform="translate(389.1836,542.8608)">
										<path id="path446" inkscape:connector-curvature="0" class="st1" d="M-664.2-3942.1l-7.8,2.3"/>
									</g>
									<g id="g448" transform="translate(387.0928,514.2026)">
										<path id="path450" inkscape:connector-curvature="0" class="st1" d="M-664.2-3942.1c-3.4-1.9-2.6-7.7-3.4-10.9
											c1.6,0.5,3.4,4,3.6,5.2"/>
									</g>
									<g id="g452" transform="translate(379.4287,305.6162)">
										<path id="path454" inkscape:connector-curvature="0" class="st1" d="M-664.2-3942.1c0-0.5-0.4-0.9-0.8-0.9
											c-0.4,0-0.8,0.4-0.8,0.9s0.4,0.9,0.8,0.9C-664.6-3941.2-664.2-3941.6-664.2-3942.1"/>
									</g>
									<g id="g456" transform="translate(381.2051,303.6025)">
										<path id="path458" inkscape:connector-curvature="0" class="st1" d="M-664.2-3942.1c0-0.5-0.4-0.9-0.8-0.9
											c-0.4,0-0.8,0.4-0.8,0.9s0.4,0.9,0.8,0.9C-664.6-3941.2-664.2-3941.6-664.2-3942.1"/>
									</g>
									<g id="g460" transform="translate(382.9824,301.5889)">
										<path id="path462" inkscape:connector-curvature="0" class="st1" d="M-664.2-3942.1c0-0.5-0.4-0.9-0.8-0.9
											c-0.5,0-0.8,0.4-0.8,0.9s0.4,0.9,0.8,0.9C-664.6-3941.2-664.2-3941.6-664.2-3942.1"/>
									</g>
									<g id="g464" transform="translate(384.7549,299.5703)">
										<path id="path466" inkscape:connector-curvature="0" class="st1" d="M-664.2-3942.1c0-0.5-0.4-0.9-0.8-0.9
											c-0.5,0-0.8,0.4-0.8,0.9s0.4,0.9,0.8,0.9C-664.6-3941.2-664.2-3941.6-664.2-3942.1"/>
									</g>
									<g id="g468" transform="translate(386.5322,297.5547)">
										<path id="path470" inkscape:connector-curvature="0" class="st1" d="M-664.2-3942.1c0-0.5-0.4-0.9-0.8-0.9
											c-0.4,0-0.8,0.4-0.8,0.9s0.4,0.9,0.8,0.9C-664.6-3941.2-664.2-3941.6-664.2-3942.1"/>
									</g>
									<g id="g472" transform="translate(388.3057,295.541)">
										<path id="path474" inkscape:connector-curvature="0" class="st1" d="M-664.2-3942.1c0-0.5-0.4-0.9-0.8-0.9
											c-0.5,0-0.8,0.4-0.8,0.9s0.4,0.9,0.8,0.9C-664.6-3941.2-664.2-3941.6-664.2-3942.1"/>
									</g>
									<g id="g476" transform="translate(390.084,293.5273)">
										<path id="path478" inkscape:connector-curvature="0" class="st1" d="M-664.2-3942.1c0-0.5-0.4-0.9-0.8-0.9
											c-0.5,0-0.8,0.4-0.8,0.9s0.4,0.9,0.8,0.9C-664.6-3941.2-664.2-3941.6-664.2-3942.1"/>
									</g>
									<g id="g480" transform="translate(391.8574,291.5107)">
										<path id="path482" inkscape:connector-curvature="0" class="st1" d="M-664.2-3942.1c0-0.5-0.4-0.9-0.8-0.9
											c-0.5,0-0.8,0.4-0.8,0.9s0.4,0.9,0.8,0.9C-664.6-3941.2-664.2-3941.6-664.2-3942.1"/>
									</g>
									<g id="g484" transform="translate(393.6348,289.4951)">
										<path id="path486" inkscape:connector-curvature="0" class="st1" d="M-664.2-3942.1c0-0.5-0.4-0.9-0.8-0.9
											c-0.5,0-0.8,0.4-0.8,0.9s0.4,0.9,0.8,0.9C-664.6-3941.2-664.2-3941.6-664.2-3942.1"/>
									</g>
									<g id="g488" transform="translate(397.1875,285.4629)">
										<path id="path490" inkscape:connector-curvature="0" class="st1" d="M-664.2-3942.1c0-0.5-0.4-0.9-0.8-0.9
											c-0.4,0-0.8,0.4-0.8,0.9s0.4,0.9,0.8,0.9C-664.6-3941.2-664.2-3941.6-664.2-3942.1"/>
									</g>
									<g id="g492" transform="translate(398.9609,283.4502)">
										<path id="path494" inkscape:connector-curvature="0" class="st1" d="M-664.2-3942.1c0-0.5-0.4-0.9-0.8-0.9
											c-0.4,0-0.8,0.4-0.8,0.9s0.4,0.9,0.8,0.9C-664.6-3941.2-664.2-3941.6-664.2-3942.1"/>
									</g>
									<g id="g496" transform="translate(379.6328,302.0186)">
										<path id="path498" inkscape:connector-curvature="0" class="st1" d="M-664.2-3942.1c0-0.5-0.4-0.9-0.8-0.9
											c-0.4,0-0.8,0.4-0.8,0.9s0.4,0.9,0.8,0.9C-664.6-3941.2-664.2-3941.6-664.2-3942.1"/>
									</g>
									<g id="g500" transform="translate(381.4102,300.0039)">
										<path id="path502" inkscape:connector-curvature="0" class="st1" d="M-664.2-3942.1c0-0.5-0.4-0.9-0.8-0.9
											c-0.5,0-0.8,0.4-0.8,0.9s0.4,0.9,0.8,0.9C-664.6-3941.2-664.2-3941.6-664.2-3942.1"/>
									</g>
									<g id="g504" transform="translate(383.1836,297.9863)">
										<path id="path506" inkscape:connector-curvature="0" class="st1" d="M-664.2-3942.1c0-0.5-0.4-0.9-0.8-0.9
											c-0.5,0-0.8,0.4-0.8,0.9s0.4,0.9,0.8,0.9C-664.6-3941.2-664.2-3941.6-664.2-3942.1"/>
									</g>
									<g id="g508" transform="translate(384.9609,295.9717)">
										<path id="path510" inkscape:connector-curvature="0" class="st1" d="M-664.2-3942.1c0-0.5-0.4-0.9-0.8-0.9
											c-0.5,0-0.8,0.4-0.8,0.9s0.4,0.9,0.8,0.9C-664.6-3941.2-664.2-3941.6-664.2-3942.1"/>
									</g>
									<g id="g512" transform="translate(386.7344,293.9541)">
										<path id="path514" inkscape:connector-curvature="0" class="st1" d="M-664.2-3942.1c0-0.5-0.4-0.9-0.8-0.9
											c-0.4,0-0.8,0.4-0.8,0.9s0.4,0.9,0.8,0.9C-664.6-3941.2-664.2-3941.6-664.2-3942.1"/>
									</g>
									<g id="g516" transform="translate(388.5117,291.9404)">
										<path id="path518" inkscape:connector-curvature="0" class="st1" d="M-664.2-3942.1c0-0.5-0.4-0.9-0.8-0.9
											c-0.5,0-0.8,0.4-0.8,0.9s0.4,0.9,0.8,0.9C-664.6-3941.2-664.2-3941.6-664.2-3942.1"/>
									</g>
									<g id="g520" transform="translate(390.2861,289.9238)">
										<path id="path522" inkscape:connector-curvature="0" class="st1" d="M-664.2-3942.1c0-0.5-0.4-0.9-0.8-0.9
											c-0.5,0-0.8,0.4-0.8,0.9s0.4,0.9,0.8,0.9C-664.6-3941.2-664.2-3941.6-664.2-3942.1"/>
									</g>
									<g id="g524" transform="translate(392.0635,287.9111)">
										<path id="path526" inkscape:connector-curvature="0" class="st1" d="M-664.2-3942.1c0-0.5-0.4-0.9-0.8-0.9
											c-0.4,0-0.8,0.4-0.8,0.9s0.4,0.9,0.8,0.9C-664.6-3941.2-664.2-3941.6-664.2-3942.1"/>
									</g>
									<g id="g528" transform="translate(393.8379,285.8926)">
										<path id="path530" inkscape:connector-curvature="0" class="st1" d="M-664.2-3942.1c0-0.5-0.4-0.9-0.8-0.9
											c-0.5,0-0.8,0.4-0.8,0.9s0.4,0.9,0.8,0.9C-664.6-3941.2-664.2-3941.6-664.2-3942.1"/>
									</g>
									<g id="g532" transform="translate(355.5044,646.625)">
										<path id="path534" inkscape:connector-curvature="0" class="st8" d="M-664.2-3942.1c0,0,45,5.3,62,0.6"/>
									</g>
									<g id="g540" transform="translate(333.999,627.1909)">
										<path id="path542" inkscape:connector-curvature="0" class="st5" d="M-664.2-3942.1l-67.8-35.8"/>
									</g>
									<g id="g544" transform="translate(440.5488,625.7012)">
										<path id="path546" inkscape:connector-curvature="0" class="st5" d="M-664.2-3942.1l70.8-35"/>
									</g>
									<g id="g548" transform="translate(513.3008,597.9316)">
										<path id="path550" inkscape:connector-curvature="0" class="st5" d="M-664.2-3942.1c0,0,29.1-1.2,36.7-59.7
											c7.7-58.8,7.2-118.8,7.2-118.8s0.5-50.5-3.7-73.4s-0.8-18.7-5.9-35.7c-5.1-17-4.4-42.1-19.7-66.7l0.4-0.3l-9.3-42.5
											c0,0-11.6,0.8-21.9,6.2c0,0-7.8,1.6,1.3,25.6l4.6,15.9l-34,9.7l-12.4-40l29.7-8.6c0,0,3.7-1.8,8.3-0.4"/>
									</g>
									<g id="g552" transform="translate(471.4824,258.2051)">
										<path id="path554" inkscape:connector-curvature="0" class="st5" d="M-664.2-3942.1c0,0,17,76.2,24.5,94.8
											c0,0,10.5,25.5,10.8,35.6l-0.7,20.6"/>
									</g>
									<g id="g556" transform="translate(385.9766,603.8818)">
										<path id="path558" inkscape:connector-curvature="0" class="st1" d="M-664.2-3942.1c3.6,0.1,6.6-0.3,6.6-0.8
											s-2.9-0.9-6.6-1c-3.6-0.1-6.6,0.3-6.6,0.8S-667.8-3942.1-664.2-3942.1"/>
									</g>
									<g id="g560" transform="translate(385.9766,603.8818)">
										<path id="path562" inkscape:connector-curvature="0" class="st6" d="M-664.2-3942.1c3.6,0.1,6.6-0.3,6.6-0.8
											s-2.9-0.9-6.6-1c-3.6-0.1-6.6,0.3-6.6,0.8S-667.8-3942.1-664.2-3942.1z"/>
									</g>
									<g id="g564" transform="translate(387.2686,607.9565)">
										<path id="path566" inkscape:connector-curvature="0" class="st1" d="M-664.2-3942.1c2.8,0,5-2.1,5.1-4.9
											c0-2.8-2.1-5-4.9-5.1c-2.8,0-5,2.1-5.1,4.9C-669.1-3944.4-666.9-3942.1-664.2-3942.1"/>
									</g>
									<g id="g568" transform="translate(387.2686,607.9565)">
										<path id="path570" inkscape:connector-curvature="0" class="st6" d="M-664.2-3942.1c2.8,0,5-2.1,5.1-4.9
											c0-2.8-2.1-5-4.9-5.1c-2.8,0-5,2.1-5.1,4.9C-669.1-3944.4-666.9-3942.1-664.2-3942.1z"/>
									</g>
									<g id="g572" transform="translate(387.1816,605.7563)">
										<path id="path574" inkscape:connector-curvature="0" class="st1" d="M-664.2-3942.1c1.5,0,2.7-1.1,2.7-2.6
											s-1.1-2.7-2.6-2.7s-2.7,1.1-2.7,2.6S-665.7-3942.1-664.2-3942.1"/>
									</g>
									<g id="g576" transform="translate(387.1816,605.7563)">
										<path id="path578" inkscape:connector-curvature="0" class="st6" d="M-664.2-3942.1c1.5,0,2.7-1.1,2.7-2.6
											s-1.1-2.7-2.6-2.7s-2.7,1.1-2.7,2.6S-665.7-3942.1-664.2-3942.1z"/>
									</g>
									<g id="g580" transform="translate(386.2793,604.7056)">
										<path id="path582" inkscape:connector-curvature="0" class="st1" d="M-664.2-3942.1c0.3,0,0.6-0.3,0.6-0.6
											s-0.3-0.6-0.6-0.6s-0.6,0.3-0.6,0.6C-664.8-3942.3-664.5-3942.1-664.2-3942.1"/>
									</g>
									<g id="g584" transform="translate(386.2793,604.7056)">
										<path id="path586" inkscape:connector-curvature="0" class="st7" d="M-664.2-3942.1c0.3,0,0.6-0.3,0.6-0.6
											s-0.3-0.6-0.6-0.6s-0.6,0.3-0.6,0.6C-664.8-3942.3-664.5-3942.1-664.2-3942.1z"/>
									</g>
									<g id="g588" transform="translate(386.3076,602.8574)">
										<path id="path590" inkscape:connector-curvature="0" class="st1" d="M-664.2-3942.1c0.3,0,0.6-0.3,0.6-0.6
											s-0.3-0.6-0.6-0.6s-0.6,0.3-0.6,0.6C-664.8-3942.3-664.5-3942.1-664.2-3942.1"/>
									</g>
									<g id="g592" transform="translate(386.3076,602.8574)">
										<path id="path594" inkscape:connector-curvature="0" class="st7" d="M-664.2-3942.1c0.3,0,0.6-0.3,0.6-0.6
											s-0.3-0.6-0.6-0.6s-0.6,0.3-0.6,0.6C-664.8-3942.3-664.5-3942.1-664.2-3942.1z"/>
									</g>
									<g id="g596" transform="translate(388.124,604.7378)">
										<path id="path598" inkscape:connector-curvature="0" class="st1" d="M-664.2-3942.1c0.3,0,0.6-0.3,0.6-0.6
											s-0.3-0.6-0.6-0.6s-0.6,0.3-0.6,0.6C-664.8-3942.3-664.5-3942.1-664.2-3942.1"/>
									</g>
									<g id="g600" transform="translate(388.124,604.7378)">
										<path id="path602" inkscape:connector-curvature="0" class="st7" d="M-664.2-3942.1c0.3,0,0.6-0.3,0.6-0.6
											s-0.3-0.6-0.6-0.6s-0.6,0.3-0.6,0.6C-664.8-3942.3-664.5-3942.1-664.2-3942.1z"/>
									</g>
									<g id="g604" transform="translate(388.1543,602.8926)">
										<path id="path606" inkscape:connector-curvature="0" class="st1" d="M-664.2-3942.1c0.3,0,0.6-0.3,0.6-0.6
											s-0.3-0.6-0.6-0.6s-0.6,0.3-0.6,0.6C-664.8-3942.3-664.5-3942.1-664.2-3942.1"/>
									</g>
									<g id="g608" transform="translate(388.1543,602.8926)">
										<path id="path610" inkscape:connector-curvature="0" class="st7" d="M-664.2-3942.1c0.3,0,0.6-0.3,0.6-0.6
											s-0.3-0.6-0.6-0.6s-0.6,0.3-0.6,0.6C-664.8-3942.3-664.5-3942.1-664.2-3942.1z"/>
									</g>
									<g id="g612" transform="translate(399.7607,598.8838)">
										<path id="path614" inkscape:connector-curvature="0" class="st9" d="M-664.2-3942.1c0,0-13.1-7.8-24.1-0.1"/>
									</g>
									<g id="g616" transform="translate(433.0977,664.7261)">
										<path id="path618" inkscape:connector-curvature="0" class="st5" d="M-664.2-3942.1l9.4-30.1
											c-4.9-20.7-36.7-51.9-36.7-51.9l-18.3,39.3c0,0,33.2,26.1,43.3,38c1.1,1.3,1.7,2.4,2,3.5c2.6,9-19,11.6-19,11.6l-42.2,0.6
											c-30.3,2.1-30-13.7-30-13.7c8-14.3,45.3-40,45.3-40l-18.2-38.2c0,0-35.7,38.9-36.2,51.1l9.3,28.4"/>
									</g>
									<g id="g620" transform="translate(375.5273,597.6914)">
										<path id="path622" inkscape:connector-curvature="0" class="st8" d="M-664.2-3942.1c0,0,8.7-8.1,23.5-0.6"/>
									</g>
									<g id="g624" transform="translate(508.3125,235.1475)">
										<path id="path626" inkscape:connector-curvature="0" class="st1" d="M-664.2-3942.1c-2.6,0.2-4.7,0.2-4.8-0.2
											c0-0.3,2-0.8,4.6-1c2.6-0.2,4.7-0.2,4.8,0.2C-659.5-3942.8-661.6-3942.3-664.2-3942.1"/>
									</g>
									<g id="g628" transform="translate(508.3125,235.1475)">
										<path id="path630" inkscape:connector-curvature="0" class="st10" d="M-664.2-3942.1c-2.6,0.2-4.7,0.2-4.8-0.2
											c0-0.3,2-0.8,4.6-1c2.6-0.2,4.7-0.2,4.8,0.2C-659.5-3942.8-661.6-3942.3-664.2-3942.1z"/>
									</g>
									<g id="g632" transform="translate(507.6025,238.1289)">
										<path id="path634" inkscape:connector-curvature="0" class="st1" d="M-664.2-3942.1c-2,0.2-3.7-1.3-3.9-3.2
											c-0.2-2,1.3-3.7,3.2-3.9c2-0.2,3.7,1.3,3.9,3.2C-660.8-3944-662.2-3942.2-664.2-3942.1"/>
									</g>
									<g id="g636" transform="translate(507.6025,238.1289)">
										<path id="path638" inkscape:connector-curvature="0" class="st10" d="M-664.2-3942.1c-2,0.2-3.7-1.3-3.9-3.2
											c-0.2-2,1.3-3.7,3.2-3.9c2-0.2,3.7,1.3,3.9,3.2C-660.8-3944-662.2-3942.2-664.2-3942.1z"/>
									</g>
									<g id="g640" transform="translate(507.5439,236.5518)">
										<path id="path642" inkscape:connector-curvature="0" class="st1" d="M-664.2-3942.1c-1,0.1-2-0.7-2.1-1.7
											c-0.1-1,0.7-2,1.7-2.1s2,0.7,2.1,1.7C-662.4-3943.1-663.1-3942.2-664.2-3942.1"/>
									</g>
									<g id="g644" transform="translate(507.5439,236.5518)">
										<path id="path646" inkscape:connector-curvature="0" class="st10" d="M-664.2-3942.1c-1,0.1-2-0.7-2.1-1.7
											c-0.1-1,0.7-2,1.7-2.1s2,0.7,2.1,1.7C-662.4-3943.1-663.1-3942.2-664.2-3942.1z"/>
									</g>
									<g id="g648" transform="translate(508.1377,235.752)">
										<path id="path650" inkscape:connector-curvature="0" class="st1" d="M-664.2-3942.1c-0.2,0-0.5-0.2-0.5-0.4
											s0.2-0.5,0.4-0.5s0.5,0.2,0.5,0.4C-663.8-3942.3-663.9-3942.1-664.2-3942.1"/>
									</g>
									<g id="g652" transform="translate(508.1377,235.752)">
										<path id="path654" inkscape:connector-curvature="0" class="st11" d="M-664.2-3942.1c-0.2,0-0.5-0.2-0.5-0.4
											s0.2-0.5,0.4-0.5s0.5,0.2,0.5,0.4C-663.8-3942.3-663.9-3942.1-664.2-3942.1z"/>
									</g>
									<g id="g656" transform="translate(508.0186,234.4365)">
										<path id="path658" inkscape:connector-curvature="0" class="st1" d="M-664.2-3942.1c-0.2,0-0.5-0.2-0.5-0.4
											s0.2-0.5,0.4-0.5s0.5,0.2,0.5,0.4C-663.8-3942.3-663.9-3942.1-664.2-3942.1"/>
									</g>
									<g id="g660" transform="translate(508.0186,234.4365)">
										<path id="path662" inkscape:connector-curvature="0" class="st11" d="M-664.2-3942.1c-0.2,0-0.5-0.2-0.5-0.4
											s0.2-0.5,0.4-0.5s0.5,0.2,0.5,0.4C-663.8-3942.3-663.9-3942.1-664.2-3942.1z"/>
									</g>
									<g id="g664" transform="translate(506.8193,235.8701)">
										<path id="path666" inkscape:connector-curvature="0" class="st1" d="M-664.2-3942.1c-0.2,0-0.5-0.2-0.5-0.4
											s0.2-0.5,0.4-0.5s0.5,0.2,0.5,0.4C-663.8-3942.3-663.9-3942.1-664.2-3942.1"/>
									</g>
									<g id="g668" transform="translate(506.8193,235.8701)">
										<path id="path670" inkscape:connector-curvature="0" class="st11" d="M-664.2-3942.1c-0.2,0-0.5-0.2-0.5-0.4
											s0.2-0.5,0.4-0.5s0.5,0.2,0.5,0.4C-663.8-3942.3-663.9-3942.1-664.2-3942.1z"/>
									</g>
									<g id="g672" transform="translate(506.7021,234.5547)">
										<path id="path674" inkscape:connector-curvature="0" class="st1" d="M-664.2-3942.1c-0.2,0-0.5-0.2-0.5-0.4
											s0.2-0.5,0.4-0.5s0.5,0.2,0.5,0.4C-663.8-3942.3-663.9-3942.1-664.2-3942.1"/>
									</g>
									<g id="g676" transform="translate(506.7021,234.5547)">
										<path id="path678" inkscape:connector-curvature="0" class="st11" d="M-664.2-3942.1c-0.2,0-0.5-0.2-0.5-0.4
											s0.2-0.5,0.4-0.5s0.5,0.2,0.5,0.4C-663.8-3942.3-663.9-3942.1-664.2-3942.1z"/>
									</g>
									<g id="g680" transform="translate(528.0869,243.4434)">
										<path id="path682" inkscape:connector-curvature="0" class="st5" d="M-664.2-3942.1l-25,5.7"/>
									</g>
									<g id="g684" transform="translate(482.5361,256.5166)">
										<path id="path686" inkscape:connector-curvature="0" class="st12" d="M-664.2-3942.1l0.7,20.1"/>
									</g>
									<g id="g688" transform="translate(486.2627,255.7715)">
										<path id="path690" inkscape:connector-curvature="0" class="st12" d="M-664.2-3942.1l11.9,38"/>
									</g>
									<g id="g692" transform="translate(506.1846,220.793)">
										<path id="path694" inkscape:connector-curvature="0" class="st1" d="M-664.2-3942.1c-2.6,0.2-4.7,0.2-4.7-0.2
											c0-0.3,2-0.8,4.6-1c2.6-0.2,4.7-0.2,4.8,0.2C-659.5-3942.8-661.6-3942.3-664.2-3942.1"/>
									</g>
									<g id="g696" transform="translate(506.1846,220.793)">
										<path id="path698" inkscape:connector-curvature="0" class="st10" d="M-664.2-3942.1c-2.6,0.2-4.7,0.2-4.7-0.2
											c0-0.3,2-0.8,4.6-1c2.6-0.2,4.7-0.2,4.8,0.2C-659.5-3942.8-661.6-3942.3-664.2-3942.1z"/>
									</g>
									<g id="g700" transform="translate(505.4717,223.7793)">
										<path id="path702" inkscape:connector-curvature="0" class="st1" d="M-664.2-3942.1c-2,0.2-3.7-1.3-3.9-3.2
											c-0.2-2,1.3-3.7,3.2-3.9c2-0.2,3.7,1.3,3.9,3.2C-660.8-3944-662.2-3942.2-664.2-3942.1"/>
									</g>
									<g id="g704" transform="translate(505.4717,223.7793)">
										<path id="path706" inkscape:connector-curvature="0" class="st10" d="M-664.2-3942.1c-2,0.2-3.7-1.3-3.9-3.2
											c-0.2-2,1.3-3.7,3.2-3.9c2-0.2,3.7,1.3,3.9,3.2C-660.8-3944-662.2-3942.2-664.2-3942.1z"/>
									</g>
									<g id="g708" transform="translate(505.4189,222.1953)">
										<path id="path710" inkscape:connector-curvature="0" class="st1" d="M-664.2-3942.1c-1,0.1-2-0.7-2.1-1.7
											c-0.1-1,0.7-2,1.7-2.1s2,0.7,2.1,1.7C-662.4-3943.1-663.1-3942.2-664.2-3942.1"/>
									</g>
									<g id="g712" transform="translate(505.4189,222.1953)">
										<path id="path714" inkscape:connector-curvature="0" class="st10" d="M-664.2-3942.1c-1,0.1-2-0.7-2.1-1.7
											c-0.1-1,0.7-2,1.7-2.1s2,0.7,2.1,1.7C-662.4-3943.1-663.1-3942.2-664.2-3942.1z"/>
									</g>
									<g id="g716" transform="translate(506.0127,221.3975)">
										<path id="path718" inkscape:connector-curvature="0" class="st1" d="M-664.2-3942.1c-0.2,0-0.5-0.2-0.5-0.4
											s0.2-0.5,0.4-0.5s0.5,0.2,0.5,0.4C-663.8-3942.3-663.9-3942.1-664.2-3942.1"/>
									</g>
									<g id="g720" transform="translate(506.0127,221.3975)">
										<path id="path722" inkscape:connector-curvature="0" class="st11" d="M-664.2-3942.1c-0.2,0-0.5-0.2-0.5-0.4
											s0.2-0.5,0.4-0.5s0.5,0.2,0.5,0.4C-663.8-3942.3-663.9-3942.1-664.2-3942.1z"/>
									</g>
									<g id="g724" transform="translate(505.8906,220.082)">
										<path id="path726" inkscape:connector-curvature="0" class="st1" d="M-664.2-3942.1c-0.2,0-0.5-0.2-0.5-0.4
											s0.2-0.5,0.4-0.5s0.5,0.2,0.5,0.4C-663.8-3942.3-663.9-3942.1-664.2-3942.1"/>
									</g>
									<g id="g728" transform="translate(505.8906,220.082)">
										<path id="path730" inkscape:connector-curvature="0" class="st11" d="M-664.2-3942.1c-0.2,0-0.5-0.2-0.5-0.4
											s0.2-0.5,0.4-0.5s0.5,0.2,0.5,0.4C-663.8-3942.3-663.9-3942.1-664.2-3942.1z"/>
									</g>
									<g id="g732" transform="translate(504.6924,221.5215)">
										<path id="path734" inkscape:connector-curvature="0" class="st1" d="M-664.2-3942.1c-0.2,0-0.5-0.2-0.5-0.4
											s0.2-0.5,0.4-0.5s0.5,0.2,0.5,0.4C-663.8-3942.3-663.9-3942.1-664.2-3942.1"/>
									</g>
									<g id="g736" transform="translate(504.6924,221.5215)">
										<path id="path738" inkscape:connector-curvature="0" class="st11" d="M-664.2-3942.1c-0.2,0-0.5-0.2-0.5-0.4
											s0.2-0.5,0.4-0.5s0.5,0.2,0.5,0.4C-663.8-3942.3-663.9-3942.1-664.2-3942.1z"/>
									</g>
									<g id="g740" transform="translate(504.5752,220.2051)">
										<path id="path742" inkscape:connector-curvature="0" class="st1" d="M-664.2-3942.1c-0.2,0-0.5-0.2-0.5-0.4
											s0.2-0.5,0.4-0.5s0.5,0.2,0.5,0.4C-663.8-3942.3-663.9-3942.1-664.2-3942.1"/>
									</g>
									<g id="g744" transform="translate(504.5752,220.2051)">
										<path id="path746" inkscape:connector-curvature="0" class="st11" d="M-664.2-3942.1c-0.2,0-0.5-0.2-0.5-0.4
											s0.2-0.5,0.4-0.5s0.5,0.2,0.5,0.4C-663.8-3942.3-663.9-3942.1-664.2-3942.1z"/>
									</g>
									<g id="g748" transform="translate(269.0288,255.4795)">
										<path id="path750" inkscape:connector-curvature="0" class="st5" d="M-664.2-3942.1c0,0-9.7-4.8-20-7.2"/>
									</g>
									<g id="g752" transform="translate(264.2324,239.8398)">
										<path id="path754" inkscape:connector-curvature="0" class="st1" d="M-664.2-3942.1c2.6,0.2,4.7,0.2,4.7-0.2
											c0-0.3-2-0.8-4.6-1c-2.6-0.2-4.7-0.2-4.8,0.2C-668.9-3942.8-666.8-3942.3-664.2-3942.1"/>
									</g>
									<g id="g756" transform="translate(264.2324,239.8398)">
										<path id="path758" inkscape:connector-curvature="0" class="st10" d="M-664.2-3942.1c2.6,0.2,4.7,0.2,4.7-0.2
											c0-0.3-2-0.8-4.6-1c-2.6-0.2-4.7-0.2-4.8,0.2C-668.9-3942.8-666.8-3942.3-664.2-3942.1z"/>
									</g>
									<g id="g760" transform="translate(264.9424,242.8262)">
										<path id="path762" inkscape:connector-curvature="0" class="st1" d="M-664.2-3942.1c2,0.2,3.7-1.3,3.9-3.2
											c0.2-2-1.3-3.7-3.2-3.9s-3.7,1.3-3.9,3.2C-667.6-3944-666.1-3942.2-664.2-3942.1"/>
									</g>
									<g id="g764" transform="translate(264.9424,242.8262)">
										<path id="path766" inkscape:connector-curvature="0" class="st10" d="M-664.2-3942.1c2,0.2,3.7-1.3,3.9-3.2
											c0.2-2-1.3-3.7-3.2-3.9s-3.7,1.3-3.9,3.2C-667.6-3944-666.1-3942.2-664.2-3942.1z"/>
									</g>
									<g id="g768" transform="translate(264.9976,241.2422)">
										<path id="path770" inkscape:connector-curvature="0" class="st1" d="M-664.2-3942.1c1,0.1,2-0.7,2.1-1.7
											c0.1-1-0.7-2-1.7-2.1s-2,0.7-2.1,1.7C-666-3943.1-665.2-3942.2-664.2-3942.1"/>
									</g>
									<g id="g772" transform="translate(264.9976,241.2422)">
										<path id="path774" inkscape:connector-curvature="0" class="st10" d="M-664.2-3942.1c1,0.1,2-0.7,2.1-1.7
											c0.1-1-0.7-2-1.7-2.1s-2,0.7-2.1,1.7C-666-3943.1-665.2-3942.2-664.2-3942.1z"/>
									</g>
									<g id="g776" transform="translate(264.4038,240.4443)">
										<path id="path778" inkscape:connector-curvature="0" class="st1" d="M-664.2-3942.1c0.2,0,0.5-0.2,0.5-0.4
											s-0.2-0.5-0.4-0.5c-0.2,0-0.5,0.2-0.5,0.4C-664.6-3942.3-664.4-3942.1-664.2-3942.1"/>
									</g>
									<g id="g780" transform="translate(264.4038,240.4443)">
										<path id="path782" inkscape:connector-curvature="0" class="st11" d="M-664.2-3942.1c0.2,0,0.5-0.2,0.5-0.4
											s-0.2-0.5-0.4-0.5c-0.2,0-0.5,0.2-0.5,0.4C-664.6-3942.3-664.4-3942.1-664.2-3942.1z"/>
									</g>
									<g id="g784" transform="translate(264.5239,239.1289)">
										<path id="path786" inkscape:connector-curvature="0" class="st1" d="M-664.2-3942.1c0.2,0,0.5-0.2,0.5-0.4
											s-0.2-0.5-0.4-0.5c-0.2,0-0.5,0.2-0.5,0.4C-664.6-3942.3-664.4-3942.1-664.2-3942.1"/>
									</g>
									<g id="g788" transform="translate(264.5239,239.1289)">
										<path id="path790" inkscape:connector-curvature="0" class="st11" d="M-664.2-3942.1c0.2,0,0.5-0.2,0.5-0.4
											s-0.2-0.5-0.4-0.5c-0.2,0-0.5,0.2-0.5,0.4C-664.6-3942.3-664.4-3942.1-664.2-3942.1z"/>
									</g>
									<g id="g792" transform="translate(265.7222,240.5674)">
										<path id="path794" inkscape:connector-curvature="0" class="st1" d="M-664.2-3942.1c0.2,0,0.5-0.2,0.5-0.4
											s-0.2-0.5-0.4-0.5c-0.2,0-0.5,0.2-0.5,0.4C-664.6-3942.3-664.4-3942.1-664.2-3942.1"/>
									</g>
									<g id="g796" transform="translate(265.7222,240.5674)">
										<path id="path798" inkscape:connector-curvature="0" class="st11" d="M-664.2-3942.1c0.2,0,0.5-0.2,0.5-0.4
											s-0.2-0.5-0.4-0.5c-0.2,0-0.5,0.2-0.5,0.4C-664.6-3942.3-664.4-3942.1-664.2-3942.1z"/>
									</g>
									<g id="g800" transform="translate(265.8394,239.252)">
										<path id="path802" inkscape:connector-curvature="0" class="st1" d="M-664.2-3942.1c0.2,0,0.5-0.2,0.5-0.4
											s-0.2-0.5-0.4-0.5c-0.2,0-0.5,0.2-0.5,0.4C-664.6-3942.3-664.4-3942.1-664.2-3942.1"/>
									</g>
									<g id="g804" transform="translate(265.8394,239.252)">
										<path id="path806" inkscape:connector-curvature="0" class="st11" d="M-664.2-3942.1c0.2,0,0.5-0.2,0.5-0.4
											s-0.2-0.5-0.4-0.5c-0.2,0-0.5,0.2-0.5,0.4C-664.6-3942.3-664.4-3942.1-664.2-3942.1z"/>
									</g>
									<g id="g808" transform="translate(263.2661,600.0122)">
										<path id="path810" inkscape:connector-curvature="0" class="st5" d="M-664.2-3942.1c0,0-30.6-4.9-32.8-59.3l-8.9-127.4
											l0.7-49.2c0,0,1.5-26.8,6-50.7c0,0,9.7-46.2,14.2-54.4l6.7-10.4l0.3-3.1l9.9-43.4l7.9,2.7l1.8,44.8"/>
									</g>
									<g id="g812" transform="translate(512.7988,246.7461)">
										<path id="path814" inkscape:connector-curvature="0" class="st5" d="M-664.2-3942.1l14.8,47.9l-10.7,7.3l-13.7-52.5
											C-673.8-3939.2-668.3-3940.8-664.2-3942.1z"/>
									</g>
									<g id="g816" transform="translate(516.9229,302.0234)">
										<path id="path818" inkscape:connector-curvature="0" class="st5" d="M-664.2-3942.1l2.7,9.9l8.2,3.2l2.9-10.9l-3.2-9.5"/>
									</g>
									<g id="g820" transform="translate(259.5249,251.8438)">
										<path id="path822" inkscape:connector-curvature="0" class="st5" d="M-664.2-3942.1l-14.8,47.9l10.7,7.3l13.5-51.5
											C-654.8-3938.2-660.1-3940.8-664.2-3942.1z"/>
									</g>
									<g id="g824" transform="translate(255.4014,307.1201)">
										<path id="path826" inkscape:connector-curvature="0" class="st5" d="M-664.2-3942.1l-2.7,9.9l-8.2,3.2l-2.9-10.9l3.2-9.5"
											/>
									</g>
									<g id="g828" transform="translate(515.543,274.1387)">
										<path id="path830" inkscape:connector-curvature="0" class="st1" d="M-664.2-3942.1c-1.9,0.2-3.5,0.1-3.5-0.1
											c0-0.3,1.5-0.6,3.4-0.8c1.9-0.2,3.5-0.1,3.5,0.1C-660.8-3942.6-662.3-3942.2-664.2-3942.1"/>
									</g>
									<g id="g832" transform="translate(515.0234,276.3242)">
										<path id="path834" inkscape:connector-curvature="0" class="st1" d="M-664.2-3942.1c-1.4,0.1-2.7-0.9-2.8-2.4
											c-0.1-1.4,0.9-2.7,2.4-2.8c1.4-0.1,2.7,0.9,2.8,2.4C-661.7-3943.5-662.7-3942.2-664.2-3942.1"/>
									</g>
									<g id="g836" transform="translate(515.0234,276.3242)">
										<path id="path838" inkscape:connector-curvature="0" class="st10" d="M-664.2-3942.1c-1.4,0.1-2.7-0.9-2.8-2.4
											c-0.1-1.4,0.9-2.7,2.4-2.8c1.4-0.1,2.7,0.9,2.8,2.4C-661.7-3943.5-662.7-3942.2-664.2-3942.1z"/>
									</g>
									<g id="g840" transform="translate(514.9805,275.166)">
										<path id="path842" inkscape:connector-curvature="0" class="st1" d="M-664.2-3942.1c-0.8,0.1-1.4-0.5-1.5-1.3
											c-0.1-0.8,0.5-1.4,1.3-1.5s1.4,0.5,1.5,1.3C-662.9-3942.8-663.4-3942.1-664.2-3942.1"/>
									</g>
									<g id="g844" transform="translate(514.9805,275.166)">
										<path id="path846" inkscape:connector-curvature="0" class="st10" d="M-664.2-3942.1c-0.8,0.1-1.4-0.5-1.5-1.3
											c-0.1-0.8,0.5-1.4,1.3-1.5s1.4,0.5,1.5,1.3C-662.9-3942.8-663.4-3942.1-664.2-3942.1z"/>
									</g>
									<g id="g848" transform="translate(515.416,274.5811)">
										<path id="path850" inkscape:connector-curvature="0" class="st1" d="M-664.2-3942.1c-0.2,0-0.3-0.1-0.3-0.3
											s0.1-0.3,0.3-0.4c0.2,0,0.3,0.1,0.4,0.3C-663.9-3942.2-664-3942.1-664.2-3942.1"/>
									</g>
									<g id="g852" transform="translate(515.416,274.5811)">
										<path id="path854" inkscape:connector-curvature="0" class="st11" d="M-664.2-3942.1c-0.2,0-0.3-0.1-0.3-0.3
											s0.1-0.3,0.3-0.4c0.2,0,0.3,0.1,0.4,0.3C-663.9-3942.2-664-3942.1-664.2-3942.1z"/>
									</g>
									<g id="g856" transform="translate(515.3291,273.6182)">
										<path id="path858" inkscape:connector-curvature="0" class="st1" d="M-664.2-3942.1c-0.2,0-0.3-0.1-0.4-0.3
											c0-0.2,0.1-0.3,0.3-0.4c0.2,0,0.3,0.1,0.4,0.3C-663.9-3942.2-664-3942.1-664.2-3942.1"/>
									</g>
									<g id="g860" transform="translate(515.3291,273.6182)">
										<path id="path862" inkscape:connector-curvature="0" class="st11" d="M-664.2-3942.1c-0.2,0-0.3-0.1-0.4-0.3
											c0-0.2,0.1-0.3,0.3-0.4c0.2,0,0.3,0.1,0.4,0.3C-663.9-3942.2-664-3942.1-664.2-3942.1z"/>
									</g>
									<g id="g864" transform="translate(514.4502,274.667)">
										<path id="path866" inkscape:connector-curvature="0" class="st1" d="M-664.2-3942.1c-0.2,0-0.3-0.1-0.3-0.3
											s0.1-0.3,0.3-0.4c0.2,0,0.3,0.1,0.4,0.3C-663.9-3942.2-664-3942.1-664.2-3942.1"/>
									</g>
									<g id="g868" transform="translate(514.4502,274.667)">
										<path id="path870" inkscape:connector-curvature="0" class="st11" d="M-664.2-3942.1c-0.2,0-0.3-0.1-0.3-0.3
											s0.1-0.3,0.3-0.4c0.2,0,0.3,0.1,0.4,0.3C-663.9-3942.2-664-3942.1-664.2-3942.1z"/>
									</g>
									<g id="g872" transform="translate(514.3643,273.7051)">
										<path id="path874" inkscape:connector-curvature="0" class="st1" d="M-664.2-3942.1c-0.2,0-0.3-0.1-0.4-0.3
											c0-0.2,0.1-0.3,0.3-0.4c0.2,0,0.3,0.1,0.4,0.3C-663.9-3942.2-664-3942.1-664.2-3942.1"/>
									</g>
									<g id="g876" transform="translate(514.3643,273.7051)">
										<path id="path878" inkscape:connector-curvature="0" class="st11" d="M-664.2-3942.1c-0.2,0-0.3-0.1-0.4-0.3
											c0-0.2,0.1-0.3,0.3-0.4c0.2,0,0.3,0.1,0.4,0.3C-663.9-3942.2-664-3942.1-664.2-3942.1z"/>
									</g>
									<g id="g880" transform="translate(258.3721,277.9482)">
										<path id="path882" inkscape:connector-curvature="0" class="st1" d="M-664.2-3942.1c-1.9,0.2-3.5,0.1-3.5-0.1
											c0-0.3,1.5-0.6,3.4-0.8c1.9-0.2,3.5-0.1,3.5,0.1C-660.8-3942.6-662.3-3942.2-664.2-3942.1"/>
									</g>
									<g id="g884" transform="translate(257.8521,280.1328)">
										<path id="path886" inkscape:connector-curvature="0" class="st1" d="M-664.2-3942.1c-1.4,0.1-2.7-0.9-2.8-2.4
											c-0.1-1.4,0.9-2.7,2.4-2.8c1.4-0.1,2.7,0.9,2.8,2.4C-661.7-3943.5-662.7-3942.2-664.2-3942.1"/>
									</g>
									<g id="g888" transform="translate(257.8521,280.1328)">
										<path id="path890" inkscape:connector-curvature="0" class="st10" d="M-664.2-3942.1c-1.4,0.1-2.7-0.9-2.8-2.4
											c-0.1-1.4,0.9-2.7,2.4-2.8c1.4-0.1,2.7,0.9,2.8,2.4C-661.7-3943.5-662.7-3942.2-664.2-3942.1z"/>
									</g>
									<g id="g892" transform="translate(257.8096,278.9775)">
										<path id="path894" inkscape:connector-curvature="0" class="st1" d="M-664.2-3942.1c-0.8,0.1-1.4-0.5-1.5-1.3
											c-0.1-0.8,0.5-1.4,1.3-1.5s1.4,0.5,1.5,1.3C-662.9-3942.8-663.4-3942.1-664.2-3942.1"/>
									</g>
									<g id="g896" transform="translate(257.8096,278.9775)">
										<path id="path898" inkscape:connector-curvature="0" class="st10" d="M-664.2-3942.1c-0.8,0.1-1.4-0.5-1.5-1.3
											c-0.1-0.8,0.5-1.4,1.3-1.5s1.4,0.5,1.5,1.3C-662.9-3942.8-663.4-3942.1-664.2-3942.1z"/>
									</g>
									<g id="g900" transform="translate(258.2446,278.3926)">
										<path id="path902" inkscape:connector-curvature="0" class="st1" d="M-664.2-3942.1c-0.2,0-0.3-0.1-0.4-0.3
											c0-0.2,0.1-0.3,0.3-0.4c0.2,0,0.3,0.1,0.4,0.3C-663.9-3942.2-664-3942.1-664.2-3942.1"/>
									</g>
									<g id="g908" transform="translate(258.1567,277.4268)">
										<path id="path910" inkscape:connector-curvature="0" class="st1" d="M-664.2-3942.1c-0.2,0-0.3-0.1-0.4-0.3
											c0-0.2,0.1-0.3,0.3-0.3s0.3,0.1,0.4,0.3C-663.9-3942.2-664-3942.1-664.2-3942.1"/>
									</g>
									<g id="g916" transform="translate(257.2788,278.4785)">
										<path id="path918" inkscape:connector-curvature="0" class="st1" d="M-664.2-3942.1c-0.2,0-0.3-0.1-0.3-0.3
											s0.1-0.3,0.3-0.4c0.2,0,0.3,0.1,0.4,0.3C-663.9-3942.2-664-3942.1-664.2-3942.1"/>
									</g>
									<g id="g924" transform="translate(257.1929,277.5137)">
										<path id="path926" inkscape:connector-curvature="0" class="st1" d="M-664.2-3942.1c-0.2,0-0.3-0.1-0.4-0.3
											c0-0.2,0.1-0.3,0.3-0.4c0.2,0,0.3,0.1,0.3,0.3C-663.9-3942.2-664-3942.1-664.2-3942.1"/>
									</g>
									<g id="g944" transform="translate(652.1543,584.2383)">
										<path id="path946" inkscape:connector-curvature="0" class="st13" d="M-664.2-3942.1c0,0-21.2-6.9-25.6-57.5
											c-4.4-50.5-12.6-94.1-12.6-94.1s-3.2-58.1,12-97.3c15.2-39.2,12-45.5,29.1-72.7c17.1-27.2,10.7-23.4,18.3-31
											c0,0,10,187.9-6.4,212.6l-7.5,11.1c0,0,1.5,100.2-7.3,128"/>
									</g>
									<g id="g948" transform="translate(736.5068,625.9414)">
										<path id="path950" inkscape:connector-curvature="0" class="st13" d="M-664.2-3942.1l-84-41.4c0,0,3.8-9.6,5.6-49.6
											c1.7-37.2,1.3-79.6,1.3-79.6s8.2-9.3,12-22.1c4.5-15,4.4-119.4,4.4-119.4s0.6-113.1-6.3-132.7c0,0,25.3-1.9,36-13.3
											c10.7-11.4,12-15.8,12-15.8s8.2-13.9,40.4-14.5s76.5,0.6,76.5,0.6s22.8,1.9,32.2,16.4c9.5,14.5,14.5,23.4,45.5,25.3
											c0,0-5.7,135.8-6.3,158c-0.6,22.1,5.7,91,6.3,97.9c0,0,2.5,17.7,7.6,19.6c0,0-3.2,75.2,2.5,82.8c0,0,6.3,44.2,7.6,46.8
											l-82.8,40.4C-553.6-3942.7-632-3935.7-664.2-3942.1L-664.2-3942.1z"/>
									</g>
									<g id="g952" transform="translate(736.5068,625.9414)">
										<path id="path954" inkscape:connector-curvature="0" class="st13" d="M-664.2-3942.1c0,0,6.7,30.1,9.1,32
											c2.4,1.9,10.7,10.7,21,9.5s52.5-0.7,52.5-0.7s15.5,0.5,19.3-16.7c2.8-12.8,8.7-24.7,8.7-24.7"/>
									</g>
									<g id="g956" transform="translate(654.4619,575.6499)">
										<path id="path958" inkscape:connector-curvature="0" class="st13" d="M-664.2-3942.1c0,0,139.4,23,272.9-1.2"/>
									</g>
									<g id="g960" transform="translate(929.8564,584.8711)">
										<path id="path962" inkscape:connector-curvature="0" class="st13" d="M-664.2-3942.1c0,0,19.3-10.8,24.5-48.5
											c5.2-37.6,12.8-100,13.4-107.6c0.6-7.6,4.7-49.2-11.6-93.1c-9.3-25.3-8.1-32.9-21.2-56.6c-14.8-26.7-12.7-27.9-25.4-43"/>
									</g>
									<g id="g964" transform="translate(777.4609,524.2197)">
										<path id="path966" inkscape:connector-curvature="0" class="st13" d="M-664.2-3942.1v61.4"/>
									</g>
									<g id="g968" transform="translate(805.2256,523.1704)">
										<path id="path970" inkscape:connector-curvature="0" class="st13" d="M-664.2-3942.1v61.4"/>
									</g>
								</g>
							</g>
						</g>
					</g>
				</g>
				<g id="g24" transform="translate(379.4824,595.4487)">
					<path id="path26" inkscape:connector-curvature="0" class="st14" d="M-664.2-3942.1l-0.3-446.8"/>
				</g>
				<g id="g28" transform="translate(394.8936,149.2666)">
					<path id="path30" inkscape:connector-curvature="0" class="st15" d="M-664.2-3942.1l0.2,445.6"/>
				</g>
				<g id="g32" transform="translate(392.165,149.8438)">
					<path id="path34" inkscape:connector-curvature="0" class="st14" d="M-664.2-3942.1l0.1,444.3"/>
				</g>
				<g id="g36" transform="translate(377.2822,595.25)">
					<path id="path38" inkscape:connector-curvature="0" class="st13" d="M-664.2-3942.1l-0.3-445.1"/>
				</g>
			</g>
		</g>
	</g>
	<g>
		<g>
			<g>
				<g>
					<g id="Logos">
						<defs>
							<rect id="SVGID_4_" x="-731.2" y="7183.7" width="140.5" height="126.7"/>
						</defs>
						<clipPath id="SVGID_5_">
							<use xlink:href="#SVGID_4_"  style="display:none;overflow:visible;"/>
						</clipPath>
						<g class="st16">
							<g>
								<g>
									<defs>
										<rect id="SVGID_6_" x="-731.2" y="7183.7" width="140.5" height="126.7"/>
									</defs>
									<defs>
										<rect id="SVGID_7_" x="-731.2" y="7183.7" width="140.5" height="126.7"/>
									</defs>
									<defs>
										<rect id="SVGID_8_" x="-731.2" y="7183.7" width="140.5" height="126.7"/>
									</defs>
									<defs>
										<rect id="SVGID_9_" x="-731.2" y="7183.7" width="140.5" height="126.7"/>
									</defs>
									<defs>
										<rect id="SVGID_10_" x="-731.2" y="7183.7" width="140.5" height="126.7"/>
									</defs>
									<defs>
										<rect id="SVGID_11_" x="-731.2" y="7183.7" width="140.5" height="126.7"/>
									</defs>
									<defs>
										<rect id="SVGID_12_" x="-731.2" y="7183.7" width="140.5" height="126.7"/>
									</defs>
									<defs>
										<rect id="SVGID_13_" x="-731.2" y="7183.7" width="140.5" height="126.7"/>
									</defs>
									<defs>
										<rect id="SVGID_14_" x="-731.2" y="7183.7" width="140.5" height="126.7"/>
									</defs>
									<defs>
										<rect id="SVGID_15_" x="-731.2" y="7183.7" width="140.5" height="126.7"/>
									</defs>
									<defs>
										<rect id="SVGID_16_" x="-731.2" y="7183.7" width="140.5" height="126.7"/>
									</defs>
									<defs>
										<rect id="SVGID_17_" x="-731.2" y="7183.7" width="140.5" height="126.7"/>
									</defs>
									<defs>
										<rect id="SVGID_18_" x="-731.2" y="7183.7" width="140.5" height="126.7"/>
									</defs>
									<defs>
										<rect id="SVGID_19_" x="-731.2" y="7183.7" width="140.5" height="126.7"/>
									</defs>
									<defs>
										<rect id="SVGID_20_" x="-731.2" y="7183.7" width="140.5" height="126.7"/>
									</defs>
									<defs>
										<rect id="SVGID_21_" x="-731.2" y="7183.7" width="140.5" height="126.7"/>
									</defs>
									<defs>
										<rect id="SVGID_22_" x="-731.2" y="7183.7" width="140.5" height="126.7"/>
									</defs>
									<defs>
										<rect id="SVGID_23_" x="-731.2" y="7183.7" width="140.5" height="126.7"/>
									</defs>
									<defs>
										<rect id="SVGID_24_" x="-731.2" y="7183.7" width="140.5" height="126.7"/>
									</defs>
									<defs>
										<rect id="SVGID_25_" x="-731.2" y="7183.7" width="140.5" height="126.7"/>
									</defs>
									<defs>
										<rect id="SVGID_26_" x="-731.2" y="7183.7" width="140.5" height="126.7"/>
									</defs>
									<defs>
										<rect id="SVGID_27_" x="-731.2" y="7183.7" width="140.5" height="126.7"/>
									</defs>
									<clipPath id="SVGID_28_">
										<use xlink:href="#SVGID_6_"  style="overflow:visible;"/>
									</clipPath>
									<clipPath id="SVGID_29_" class="st17">
										<use xlink:href="#SVGID_7_"  style="overflow:visible;"/>
									</clipPath>
									<clipPath id="SVGID_30_" class="st18">
										<use xlink:href="#SVGID_8_"  style="overflow:visible;"/>
									</clipPath>
									<clipPath id="SVGID_31_" class="st19">
										<use xlink:href="#SVGID_9_"  style="overflow:visible;"/>
									</clipPath>
									<clipPath id="SVGID_32_" class="st20">
										<use xlink:href="#SVGID_10_"  style="overflow:visible;"/>
									</clipPath>
									<clipPath id="SVGID_33_" class="st21">
										<use xlink:href="#SVGID_11_"  style="overflow:visible;"/>
									</clipPath>
									<clipPath id="SVGID_34_" class="st22">
										<use xlink:href="#SVGID_12_"  style="overflow:visible;"/>
									</clipPath>
									<clipPath id="SVGID_35_" class="st23">
										<use xlink:href="#SVGID_13_"  style="overflow:visible;"/>
									</clipPath>
									<clipPath id="SVGID_36_" class="st24">
										<use xlink:href="#SVGID_14_"  style="overflow:visible;"/>
									</clipPath>
									<clipPath id="SVGID_37_" class="st25">
										<use xlink:href="#SVGID_15_"  style="overflow:visible;"/>
									</clipPath>
									<clipPath id="SVGID_38_" class="st26">
										<use xlink:href="#SVGID_16_"  style="overflow:visible;"/>
									</clipPath>
									<clipPath id="SVGID_39_" class="st27">
										<use xlink:href="#SVGID_17_"  style="overflow:visible;"/>
									</clipPath>
									<clipPath id="SVGID_40_" class="st28">
										<use xlink:href="#SVGID_18_"  style="overflow:visible;"/>
									</clipPath>
									<clipPath id="SVGID_41_" class="st29">
										<use xlink:href="#SVGID_19_"  style="overflow:visible;"/>
									</clipPath>
									<clipPath id="SVGID_42_" class="st30">
										<use xlink:href="#SVGID_20_"  style="overflow:visible;"/>
									</clipPath>
									<clipPath id="SVGID_43_" class="st31">
										<use xlink:href="#SVGID_21_"  style="overflow:visible;"/>
									</clipPath>
									<clipPath id="SVGID_44_" class="st32">
										<use xlink:href="#SVGID_22_"  style="overflow:visible;"/>
									</clipPath>
									<clipPath id="SVGID_45_" class="st33">
										<use xlink:href="#SVGID_23_"  style="overflow:visible;"/>
									</clipPath>
									<clipPath id="SVGID_46_" class="st34">
										<use xlink:href="#SVGID_24_"  style="display:none;overflow:visible;"/>
									</clipPath>
									<clipPath id="SVGID_47_" class="st35">
										<use xlink:href="#SVGID_25_"  style="display:none;overflow:visible;"/>
									</clipPath>
									<clipPath id="SVGID_48_" class="st36">
										<use xlink:href="#SVGID_26_"  style="overflow:visible;"/>
									</clipPath>
									<clipPath id="SVGID_49_" class="st37">
										<use xlink:href="#SVGID_27_"  style="overflow:visible;"/>
									</clipPath>
									<path class="st38" d="M-620.8,7310.3c-0.4,0-0.9-0.1-1.3-0.3l-14.6-6.2c-0.8-0.3-1.5-1-1.8-1.8l-33.5-81.8
										c-0.3-0.8-0.3-1.7,0-2.5l5.9-14.4c0.5-1.3,1.7-2.1,3.1-2.1s2.6,0.8,3.1,2.1l42.1,102.4c0.5,1.3,0.2,2.7-0.7,3.7
										C-619.1,7309.9-620,7310.3-620.8,7310.3"/>
									<path class="st38" d="M-714.9,7310.4c-0.5,0-1.1-0.1-1.5-0.4l-12.9-6.7c-1.6-0.8-2.2-2.7-1.6-4.3l47.6-113.3
										c0.5-1.2,1.7-2.1,3.1-2.1h14.7c1.1,0,2.2,0.6,2.8,1.5s0.7,2.1,0.3,3.1l-49.3,120c-0.4,0.9-1.1,1.6-1.9,1.9
										C-714.2,7310.3-714.6,7310.4-714.9,7310.4"/>
									<path class="st38" d="M-612.8,7303.9c-1.3,0-2.6-0.9-3.1-2.1l-7.6-18.2c-0.3-0.8-0.3-1.8,0-2.6l13.7-33.6
										c0.3-0.6,0.7-1.2,1.3-1.6l12.5-8c0.5-0.3,1.2-0.5,1.8-0.5s1.1,0.1,1.6,0.4c1.1,0.6,1.7,1.7,1.7,2.9v16.4
										c0,0.5-0.1,0.9-0.3,1.3c0,0-12.4,29-18.6,43.4C-610.2,7303-611.4,7303.9-612.8,7303.9L-612.8,7303.9z"/>
									<path class="st38" d="M-693.9,7284.1c-0.8,0-1.5-0.3-2.1-0.9c-0.8-0.8-1.1-2-0.7-3.1l7.2-19c0.3-0.7,0.8-1.2,1.4-1.6
										l22-11.4c0.4-0.2,0.9-0.3,1.4-0.3c0.3,0,0.7,0.1,1,0.2c0.8,0.3,1.4,0.9,1.7,1.7l6.5,16.4c0.3,0.7,0.3,1.5,0,2.3
										c-0.3,0.7-0.9,1.3-1.6,1.6l-35.7,13.9C-693.2,7284.1-693.6,7284.1-693.9,7284.1"/>
								</g>
							</g>
						</g>
						<g class="st16">
							<g>
								<g>
									<defs>
										<polygon id="SVGID_50_" points="-973.6,7236.9 -988.4,7286.4 -1056.9,7283.9 -1049.8,7194 -983.9,7170.1 										"/>
									</defs>
									<clipPath id="SVGID_51_">
										<use xlink:href="#SVGID_50_"  style="overflow:visible;"/>
									</clipPath>
									<g transform="matrix(1 0 0 1 3.051758e-05 0)" class="st39">
										
											<image style="overflow:visible;enable-background:new    ;" width="1701" height="915" xlink:href="feria-logo.png"  transform="matrix(8.648337e-02 0 0 8.648337e-02 -1135.5283 7199.3379)">
										</image>
									</g>
								</g>
							</g>
						</g>
						<g class="st16">
							<g>
								<g>
									<defs>
										<polygon id="SVGID_52_" points="216.2,7209.8 218.7,7222.2 219.6,7228.1 225.9,7274.9 179.5,7274.9 149.1,7242.3 
											152.1,7198.1 206.3,7190.4 										"/>
									</defs>
									<clipPath id="SVGID_53_">
										<use xlink:href="#SVGID_52_"  style="overflow:visible;"/>
									</clipPath>
									<g transform="matrix(1 0 0 1 -6.103516e-05 0)" class="st40">
										
											<image style="overflow:visible;enable-background:new    ;" width="1701" height="915" xlink:href="feria-logo.png"  transform="matrix(8.648337e-02 0 0 8.648337e-02 161.7396 7199.3379)">
										</image>
									</g>
								</g>
							</g>
						</g>
						<g id="Logo_x5F_macchiato.psd" class="st16">
							<g>
								<g>
									<defs>
										<rect id="SVGID_54_" x="-257.6" y="7269.6" width="387.9" height="42.3"/>
									</defs>
									<clipPath id="SVGID_55_">
										<use xlink:href="#SVGID_54_"  style="overflow:visible;"/>
									</clipPath>
									<g class="st41">
										
											<image style="overflow:visible;enable-background:new    ;" width="193" height="177" id="logo_x5F_macchiatov2_1_" xlink:href="AA76F5DC55CBB61.png"  transform="matrix(0.2381 0 0 0.2381 -257.6946 7269.6816)">
										</image>
									</g>
								</g>
							</g>
							<g>
								<g>
									<defs>
										<rect id="SVGID_56_" x="-257.6" y="7269.6" width="387.9" height="42.3"/>
									</defs>
									<clipPath id="SVGID_57_">
										<use xlink:href="#SVGID_56_"  style="overflow:visible;"/>
									</clipPath>
									<g class="st42">
										<text transform="matrix(1 0 0 1 -206.8318 7308.0396)" class="st43 st44 st45">M</text>
										<text transform="matrix(1 0 0 1 -160.8318 7308.0396)" class="st43 st44 st45">A</text>
										<text transform="matrix(1 0 0 1 -127.3318 7308.0396)" class="st43 st44 st45">C</text>
										<text transform="matrix(1 0 0 1 -90.7318 7308.0396)" class="st43 st44 st45">CHI</text>
										<text transform="matrix(1 0 0 1 -2.6318 7308.0396)" class="st43 st44 st45">A</text>
										<text transform="matrix(1 0 0 1 28.8682 7308.0396)" class="st43 st44 st45">T</text>
										<text transform="matrix(1 0 0 1 55.3682 7308.0396)" class="st43 st44 st45">O</text>
									</g>
								</g>
							</g>
							<g>
								<g>
									<defs>
										<rect id="SVGID_58_" x="-257.6" y="7269.6" width="387.9" height="42.3"/>
									</defs>
									<clipPath id="SVGID_59_">
										<use xlink:href="#SVGID_58_"  style="overflow:visible;"/>
									</clipPath>
									<g class="st46">
										<text transform="matrix(1 0 0 1 94.2047 7308.813)" class="st43 st47 st48">IDEAS</text>
									</g>
								</g>
							</g>
						</g>
					</g>
				</g>
			</g>
			<text transform="matrix(1.2241 0 0 1 -729.7983 7345.6255)" class="st49 st50 st51">HERNN</text>
		</g>
	</g>
</g>
<g id="DI">
	<g>
		<defs>
			<polygon id="SVGID_60_" points="-500.6,7195.9 -495.1,7205.6 -489.2,7242.2 -483.3,7313.4 -525,7320.7 -572.1,7308.7 
				-580,7190.9 			"/>
		</defs>
		<clipPath id="SVGID_61_">
			<use xlink:href="#SVGID_60_"  style="overflow:visible;"/>
		</clipPath>
		<g style="clip-path:url(#SVGID_61_);">
			
				<image style="overflow:visible;" width="1829" height="1829" xlink:href="di_hd.png"  transform="matrix(6.571157e-02 0 0 6.571157e-02 -549.3315 7194.6719)">
			</image>
		</g>
	</g>
	<g>
		<defs>
			<path id="SVGID_62_" d="M-345.4,7189.6l-8,31.6l-5.3,50.8l-5.1,41.5l26.6,5.8l36.4-16.4c0,0-6.6-110.1-7.1-114.7
				S-345.4,7189.6-345.4,7189.6z"/>
		</defs>
		<clipPath id="SVGID_63_">
			<use xlink:href="#SVGID_62_"  style="overflow:visible;"/>
		</clipPath>
		<g style="clip-path:url(#SVGID_63_);">
			
				<image style="overflow:visible;" width="1829" height="1829" xlink:href="di_hd.png"  transform="matrix(6.571157e-02 0 0 6.571157e-02 -416.2243 7190.8647)">
			</image>
		</g>
	</g>
</g>
</svg>
