<?xml version="1.0" encoding="utf-8"?>
<!-- Generator: Adobe Illustrator 19.0.0, SVG Export Plug-In . SVG Version: 6.00 Build 0)  -->
<svg version="1.1" xmlns="http://www.w3.org/2000/svg" xmlns:xlink="http://www.w3.org/1999/xlink" x="0px" y="0px"
	 viewBox="0 0 1181.2 1171.9" style="enable-background:new 0 0 1181.2 1171.9;" xml:space="preserve">
<style type="text/css">
	.st0{display:none;}
	.st1{fill:url(#Punta_4_);}
	.st2{display:inline;}
	.st3{fill:none;stroke:url(#XMLID_71_);stroke-width:20;stroke-miterlimit:10;}
	.st4{fill:none;stroke:url(#XMLID_72_);stroke-width:30;stroke-miterlimit:10;}
	.st5{fill:url(#XMLID_73_);}
	.st6{fill:url(#XMLID_74_);}
	.st7{fill:url(#XMLID_75_);}
	.st8{display:inline;fill:url(#Punta_5_);}
	.st9{fill:none;stroke:url(#XMLID_77_);stroke-width:20;stroke-miterlimit:10;}
	.st10{fill:none;stroke:url(#XMLID_82_);stroke-width:30;stroke-miterlimit:10;}
	.st11{fill:url(#XMLID_83_);}
	.st12{fill:url(#XMLID_84_);}
	.st13{fill:url(#XMLID_85_);}
	.st14{display:none;fill:url(#Punta_6_);}
	.st15{fill:none;stroke:url(#XMLID_86_);stroke-width:20;stroke-miterlimit:10;}
	.st16{display:none;fill:none;stroke:url(#XMLID_87_);stroke-width:30;stroke-miterlimit:10;}
	.st17{display:none;fill:url(#XMLID_88_);}
	.st18{display:none;fill:url(#XMLID_89_);}
	.st19{display:none;fill:url(#XMLID_90_);}
	.st20{display:none;fill:url(#Punta_7_);}
	.st21{fill:none;stroke:url(#XMLID_91_);stroke-width:20;stroke-miterlimit:10;}
	.st22{display:none;fill:none;stroke:url(#XMLID_92_);stroke-width:30;stroke-miterlimit:10;}
	.st23{display:none;fill:url(#XMLID_93_);}
	.st24{display:none;fill:url(#XMLID_94_);}
	.st25{display:none;fill:url(#XMLID_95_);}
	.st26{font-family:'Arial-Black';}
	.st27{font-size:500px;}
	.st28{fill:url(#XMLID_96_);}
	.st29{fill:url(#XMLID_97_);}
	.st30{fill:url(#XMLID_98_);}
	.st31{fill:url(#XMLID_99_);}
	.st32{fill:url(#XMLID_100_);}
	.st33{fill:url(#XMLID_101_);}
	.st34{fill:url(#XMLID_102_);}
	.st35{stroke:#000000;}
	.st36{font-family:'AvenirNext-UltraLight';}
	.st37{font-size:1296px;}
	.st38{fill:url(#XMLID_103_);}
	.st39{fill:url(#XMLID_104_);}
	.st40{fill:url(#XMLID_105_);}
	.st41{fill:url(#XMLID_106_);}
	.st42{fill:url(#XMLID_107_);}
	.st43{fill:url(#XMLID_108_);}
	.st44{fill:url(#XMLID_109_);}
</style>
<g id="Capa_1_copia_2" class="st0">
	<linearGradient id="Punta_4_" gradientUnits="userSpaceOnUse" x1="2166" y1="115.3043" x2="2260.6104" y2="115.3043">
		<stop  offset="0" style="stop-color:#48577C;stop-opacity:0.2"/>
		<stop  offset="0.9987" style="stop-color:#57577C;stop-opacity:0.2"/>
	</linearGradient>
	<path id="Punta_1_" class="st1" d="M2241.2,172.9c12.2-15.9,19.4-35.8,19.4-57.4c0-21.8-7.4-41.8-19.7-57.8l-74.9,57.8
		L2241.2,172.9z"/>
	<g id="XMLID_81_" class="st2">
		
			<image style="overflow:visible;opacity:0.25;" width="798" height="1042" id="XMLID_40_" xlink:href="9467D3FB4AA4B2C1.png"  transform="matrix(1 0 0 1 2317 -48)">
		</image>
		<g id="XMLID_29_">
			<linearGradient id="XMLID_71_" gradientUnits="userSpaceOnUse" x1="2383.5869" y1="468.0917" x2="3048.5327" y2="468.0917">
				<stop  offset="0" style="stop-color:#7D7AE6"/>
				<stop  offset="0.1007" style="stop-color:#6391DF"/>
				<stop  offset="0.4935" style="stop-color:#00E9C5"/>
				<stop  offset="0.7857" style="stop-color:#00C0B4"/>
				<stop  offset="1" style="stop-color:#00A7AA"/>
			</linearGradient>
			<path id="XMLID_38_" class="st3" d="M2519.5,23.2L2400,115.5l119.5,91.3c186,0,335.4,150.1,335.4,335.2c0,92.6-37.4,176.4-98,237
				l129.9,129.9c93.9-93.9,151.7-223.6,151.7-366.9C3038.5,255.5,2806.5,23.2,2519.5,23.2z"/>
		</g>
	</g>
	<linearGradient id="XMLID_72_" gradientUnits="userSpaceOnUse" x1="227.4673" y1="542" x2="1294.5327" y2="542">
		<stop  offset="0" style="stop-color:#7D7AE6"/>
		<stop  offset="0.1007" style="stop-color:#6391DF"/>
		<stop  offset="0.4935" style="stop-color:#00E9C5"/>
		<stop  offset="0.7857" style="stop-color:#00C0B4"/>
		<stop  offset="1" style="stop-color:#00A7AA"/>
	</linearGradient>
	<circle id="XMLID_80_" class="st4" cx="761" cy="542" r="518.5"/>
	<linearGradient id="XMLID_73_" gradientUnits="userSpaceOnUse" x1="641" y1="471.4235" x2="1243.0537" y2="471.4235">
		<stop  offset="0" style="stop-color:#7D7AE6"/>
		<stop  offset="0.1007" style="stop-color:#6391DF"/>
		<stop  offset="0.4935" style="stop-color:#00E9C5"/>
		<stop  offset="0.7857" style="stop-color:#00C0B4"/>
		<stop  offset="1" style="stop-color:#00A7AA"/>
	</linearGradient>
	<path id="XMLID_79_" class="st5" d="M761,59.9c-17.4,0-34.7,0.9-51.6,2.7L641,115.5l119.5,91.3c186,0,335.4,150.1,335.4,335.2
		c0,92.6-37.4,176.4-98,237l103.9,103.9c87.3-87.2,141.2-207.8,141.2-340.9C1243.1,275.8,1027.2,59.9,761,59.9z"/>
	<linearGradient id="XMLID_74_" gradientUnits="userSpaceOnUse" x1="2172.427" y1="478.0965" x2="2722.5139" y2="478.0965">
		<stop  offset="0" style="stop-color:#7D7AE6;stop-opacity:0.5"/>
		<stop  offset="0.1007" style="stop-color:#6391DF;stop-opacity:0.5"/>
		<stop  offset="0.4935" style="stop-color:#00E9C5;stop-opacity:0.5"/>
		<stop  offset="0.7857" style="stop-color:#00C0B4;stop-opacity:0.5"/>
		<stop  offset="1" style="stop-color:#00A7AA;stop-opacity:0.5"/>
	</linearGradient>
	<path id="XMLID_78_" class="st6" d="M2286,105.5c-39.3,0-77.4,5.2-113.6,14.9l113.1,86.4c186,0,335.4,150.1,335.4,335.2
		c0,92.6-37.4,176.4-98,237l71.7,71.7c79-79,127.9-188.1,127.9-308.7C2722.5,300.9,2527.1,105.5,2286,105.5z"/>
	<linearGradient id="XMLID_75_" gradientUnits="userSpaceOnUse" x1="700.1255" y1="485.4844" x2="1147.0947" y2="485.4844">
		<stop  offset="0" style="stop-color:#7D7AE6"/>
		<stop  offset="0.1007" style="stop-color:#6391DF"/>
		<stop  offset="0.4935" style="stop-color:#00E9C5"/>
		<stop  offset="0.7857" style="stop-color:#00C0B4"/>
		<stop  offset="1" style="stop-color:#00A7AA"/>
	</linearGradient>
	<path id="XMLID_76_" class="st7" d="M761,155.9c-20.7,0-41,1.6-60.9,4.8l60.4,46.1c186,0,335.4,150.1,335.4,335.2
		c0,92.6-37.4,176.4-98,237l36.1,36.1c69.9-69.9,113.1-166.4,113.1-273.1C1147.1,328.8,974.2,155.9,761,155.9z"/>
</g>
<g id="Capa_1_copia_3" class="st0">
	<linearGradient id="Punta_5_" gradientUnits="userSpaceOnUse" x1="372" y1="558.3043" x2="466.6102" y2="558.3043">
		<stop  offset="0" style="stop-color:#48577C;stop-opacity:0.2"/>
		<stop  offset="0.9987" style="stop-color:#57577C;stop-opacity:0.2"/>
	</linearGradient>
	<path id="Punta_3_" class="st8" d="M447.2,615.9c12.2-15.9,19.4-35.8,19.4-57.4c0-21.8-7.4-41.8-19.7-57.8L372,558.5L447.2,615.9z"
		/>
	<g id="XMLID_43_" class="st2">
		
			<image style="overflow:visible;opacity:0.25;" width="798" height="1042" id="XMLID_62_" xlink:href="9467D3FB4AA4B2C3.png"  transform="matrix(1 0 0 1 289 395)">
		</image>
		<g id="XMLID_55_">
			<linearGradient id="XMLID_77_" gradientUnits="userSpaceOnUse" x1="355.587" y1="911.0917" x2="1020.5327" y2="911.0917">
				<stop  offset="0" style="stop-color:#7D7AE6"/>
				<stop  offset="0.1007" style="stop-color:#6391DF"/>
				<stop  offset="0.4935" style="stop-color:#00E9C5"/>
				<stop  offset="0.7857" style="stop-color:#00C0B4"/>
				<stop  offset="1" style="stop-color:#00A7AA"/>
			</linearGradient>
			<path id="XMLID_60_" class="st9" d="M491.5,466.2L372,558.5l119.5,91.3c186,0,335.4,150.1,335.4,335.2c0,92.6-37.4,176.4-98,237
				l129.9,129.9c93.9-93.9,151.7-223.6,151.7-366.9C1010.5,698.5,778.5,466.2,491.5,466.2z"/>
		</g>
	</g>
	<linearGradient id="XMLID_82_" gradientUnits="userSpaceOnUse" x1="37.4673" y1="540" x2="1104.5327" y2="540">
		<stop  offset="0" style="stop-color:#7D7AE6"/>
		<stop  offset="0.1007" style="stop-color:#6391DF"/>
		<stop  offset="0.4935" style="stop-color:#00E9C5"/>
		<stop  offset="0.7857" style="stop-color:#00C0B4"/>
		<stop  offset="1" style="stop-color:#00A7AA"/>
	</linearGradient>
	<circle id="XMLID_42_" class="st10" cx="571" cy="540" r="518.5"/>
	<linearGradient id="XMLID_83_" gradientUnits="userSpaceOnUse" x1="451" y1="469.4235" x2="1053.0537" y2="469.4235">
		<stop  offset="0" style="stop-color:#7D7AE6"/>
		<stop  offset="0.1007" style="stop-color:#6391DF"/>
		<stop  offset="0.4935" style="stop-color:#00E9C5"/>
		<stop  offset="0.7857" style="stop-color:#00C0B4"/>
		<stop  offset="1" style="stop-color:#00A7AA"/>
	</linearGradient>
	<path id="XMLID_41_" class="st11" d="M571,57.9c-17.4,0-34.7,0.9-51.6,2.7L451,113.5l119.5,91.3c186,0,335.4,150.1,335.4,335.2
		c0,92.6-37.4,176.4-98,237l103.9,103.9c87.3-87.2,141.2-207.8,141.2-340.9C1053.1,273.8,837.2,57.9,571,57.9z"/>
	<linearGradient id="XMLID_84_" gradientUnits="userSpaceOnUse" x1="457.4269" y1="476.0965" x2="1007.5139" y2="476.0965">
		<stop  offset="0" style="stop-color:#7D7AE6;stop-opacity:0.5"/>
		<stop  offset="0.1007" style="stop-color:#6391DF;stop-opacity:0.5"/>
		<stop  offset="0.4935" style="stop-color:#00E9C5;stop-opacity:0.5"/>
		<stop  offset="0.7857" style="stop-color:#00C0B4;stop-opacity:0.5"/>
		<stop  offset="1" style="stop-color:#00A7AA;stop-opacity:0.5"/>
	</linearGradient>
	<path id="XMLID_39_" class="st12" d="M571,103.5c-39.3,0-77.4,5.2-113.6,14.9l113.1,86.4c186,0,335.4,150.1,335.4,335.2
		c0,92.6-37.4,176.4-98,237l71.7,71.7c79-79,127.9-188.1,127.9-308.7C1007.5,298.9,812.1,103.5,571,103.5z"/>
	<linearGradient id="XMLID_85_" gradientUnits="userSpaceOnUse" x1="510.1255" y1="483.4844" x2="957.0947" y2="483.4844">
		<stop  offset="0" style="stop-color:#7D7AE6"/>
		<stop  offset="0.1007" style="stop-color:#6391DF"/>
		<stop  offset="0.4935" style="stop-color:#00E9C5"/>
		<stop  offset="0.7857" style="stop-color:#00C0B4"/>
		<stop  offset="1" style="stop-color:#00A7AA"/>
	</linearGradient>
	<path id="XMLID_37_" class="st13" d="M571,153.9c-20.7,0-41,1.6-60.9,4.8l60.4,46.1c186,0,335.4,150.1,335.4,335.2
		c0,92.6-37.4,176.4-98,237l36.1,36.1c69.9-69.9,113.1-166.4,113.1-273.1C957.1,326.8,784.2,153.9,571,153.9z"/>
</g>
<g id="Capa_1">
	<linearGradient id="Punta_6_" gradientUnits="userSpaceOnUse" x1="451" y1="113.3043" x2="545.6102" y2="113.3043">
		<stop  offset="0" style="stop-color:#48577C;stop-opacity:0.2"/>
		<stop  offset="0.9987" style="stop-color:#57577C;stop-opacity:0.2"/>
	</linearGradient>
	<path id="Punta" class="st14" d="M526.2,170.9c12.2-15.9,19.4-35.8,19.4-57.4c0-21.8-7.4-41.8-19.7-57.8L451,113.5L526.2,170.9z"/>
	<g id="XMLID_4_">
		<linearGradient id="XMLID_86_" gradientUnits="userSpaceOnUse" x1="434.587" y1="466.0917" x2="1099.5327" y2="466.0917">
			<stop  offset="0" style="stop-color:#7D7AE6"/>
			<stop  offset="0.1007" style="stop-color:#6391DF"/>
			<stop  offset="0.4935" style="stop-color:#00E9C5"/>
			<stop  offset="0.7857" style="stop-color:#00C0B4"/>
			<stop  offset="1" style="stop-color:#00A7AA"/>
		</linearGradient>
		<path id="XMLID_21_" class="st15" d="M570.5,21.2L451,113.5l119.5,91.3c186,0,335.4,150.1,335.4,335.2c0,92.6-37.4,176.4-98,237
			l129.9,129.9c93.9-93.9,151.7-223.6,151.7-366.9C1089.5,253.5,857.5,21.2,570.5,21.2z"/>
	</g>
	<linearGradient id="XMLID_87_" gradientUnits="userSpaceOnUse" x1="37.4673" y1="540" x2="1104.5327" y2="540">
		<stop  offset="0" style="stop-color:#7D7AE6"/>
		<stop  offset="0.1007" style="stop-color:#6391DF"/>
		<stop  offset="0.4935" style="stop-color:#00E9C5"/>
		<stop  offset="0.7857" style="stop-color:#00C0B4"/>
		<stop  offset="1" style="stop-color:#00A7AA"/>
	</linearGradient>
	<circle id="XMLID_1_" class="st16" cx="571" cy="540" r="518.5"/>
	<linearGradient id="XMLID_88_" gradientUnits="userSpaceOnUse" x1="451" y1="469.4235" x2="1053.0537" y2="469.4235">
		<stop  offset="0" style="stop-color:#7D7AE6"/>
		<stop  offset="0.1007" style="stop-color:#6391DF"/>
		<stop  offset="0.4935" style="stop-color:#00E9C5"/>
		<stop  offset="0.7857" style="stop-color:#00C0B4"/>
		<stop  offset="1" style="stop-color:#00A7AA"/>
	</linearGradient>
	<path id="XMLID_8_" class="st17" d="M571,57.9c-17.4,0-34.7,0.9-51.6,2.7L451,113.5l119.5,91.3c186,0,335.4,150.1,335.4,335.2
		c0,92.6-37.4,176.4-98,237l103.9,103.9c87.3-87.2,141.2-207.8,141.2-340.9C1053.1,273.8,837.2,57.9,571,57.9z"/>
	<linearGradient id="XMLID_89_" gradientUnits="userSpaceOnUse" x1="457.4269" y1="476.0965" x2="1007.5139" y2="476.0965">
		<stop  offset="0" style="stop-color:#7D7AE6;stop-opacity:0.5"/>
		<stop  offset="0.1007" style="stop-color:#6391DF;stop-opacity:0.5"/>
		<stop  offset="0.4935" style="stop-color:#00E9C5;stop-opacity:0.5"/>
		<stop  offset="0.7857" style="stop-color:#00C0B4;stop-opacity:0.5"/>
		<stop  offset="1" style="stop-color:#00A7AA;stop-opacity:0.5"/>
	</linearGradient>
	<path id="XMLID_7_" class="st18" d="M571,103.5c-39.3,0-77.4,5.2-113.6,14.9l113.1,86.4c186,0,335.4,150.1,335.4,335.2
		c0,92.6-37.4,176.4-98,237l71.7,71.7c79-79,127.9-188.1,127.9-308.7C1007.5,298.9,812.1,103.5,571,103.5z"/>
	<linearGradient id="XMLID_90_" gradientUnits="userSpaceOnUse" x1="510.1255" y1="483.4844" x2="957.0947" y2="483.4844">
		<stop  offset="0" style="stop-color:#7D7AE6"/>
		<stop  offset="0.1007" style="stop-color:#6391DF"/>
		<stop  offset="0.4935" style="stop-color:#00E9C5"/>
		<stop  offset="0.7857" style="stop-color:#00C0B4"/>
		<stop  offset="1" style="stop-color:#00A7AA"/>
	</linearGradient>
	<path id="XMLID_6_" class="st19" d="M571,153.9c-20.7,0-41,1.6-60.9,4.8l60.4,46.1c186,0,335.4,150.1,335.4,335.2
		c0,92.6-37.4,176.4-98,237l36.1,36.1c69.9-69.9,113.1-166.4,113.1-273.1C957.1,326.8,784.2,153.9,571,153.9z"/>
</g>
<g id="Capa_1_copia">
	<linearGradient id="Punta_7_" gradientUnits="userSpaceOnUse" x1="691" y1="966.4145" x2="596.3898" y2="966.4146">
		<stop  offset="0" style="stop-color:#48577C;stop-opacity:0.2"/>
		<stop  offset="1" style="stop-color:#57577C;stop-opacity:0.2"/>
	</linearGradient>
	<path id="Punta_2_" class="st20" d="M615.8,908.8c-12.2,15.9-19.4,35.8-19.4,57.4c0,21.8,7.4,41.8,19.7,57.8l74.9-57.8L615.8,908.8
		z"/>
	<g id="XMLID_19_">
		<linearGradient id="XMLID_91_" gradientUnits="userSpaceOnUse" x1="42.4673" y1="613.6271" x2="707.413" y2="613.6271">
			<stop  offset="0" style="stop-color:#7D7AE6"/>
			<stop  offset="0.1007" style="stop-color:#6391DF"/>
			<stop  offset="0.4935" style="stop-color:#00E9C5"/>
			<stop  offset="0.7857" style="stop-color:#00C0B4"/>
			<stop  offset="1" style="stop-color:#00A7AA"/>
		</linearGradient>
		<path id="XMLID_23_" class="st21" d="M571.5,1058.5L691,966.2l-119.5-91.3c-186,0-335.4-150.1-335.4-335.2
			c0-92.6,37.4-176.4,98-237L204.2,172.9C110.3,266.7,52.5,396.5,52.5,539.7C52.5,826.3,284.5,1058.5,571.5,1058.5z"/>
	</g>
	
		<linearGradient id="XMLID_92_" gradientUnits="userSpaceOnUse" x1="815.4673" y1="540" x2="1882.5327" y2="540" gradientTransform="matrix(-1 0 0 -1 1920 1079.7189)">
		<stop  offset="0" style="stop-color:#7D7AE6"/>
		<stop  offset="0.1007" style="stop-color:#6391DF"/>
		<stop  offset="0.4935" style="stop-color:#00E9C5"/>
		<stop  offset="0.7857" style="stop-color:#00C0B4"/>
		<stop  offset="1" style="stop-color:#00A7AA"/>
	</linearGradient>
	<circle id="XMLID_18_" class="st22" cx="571" cy="539.7" r="518.5"/>
	
		<linearGradient id="XMLID_93_" gradientUnits="userSpaceOnUse" x1="1229" y1="469.4235" x2="1831.0537" y2="469.4235" gradientTransform="matrix(-1 0 0 -1 1920 1079.7189)">
		<stop  offset="0" style="stop-color:#7D7AE6"/>
		<stop  offset="0.1007" style="stop-color:#6391DF"/>
		<stop  offset="0.4935" style="stop-color:#00E9C5"/>
		<stop  offset="0.7857" style="stop-color:#00C0B4"/>
		<stop  offset="1" style="stop-color:#00A7AA"/>
	</linearGradient>
	<path id="XMLID_17_" class="st23" d="M571,1021.8c17.4,0,34.7-0.9,51.6-2.7l68.4-52.8l-119.5-91.3c-186,0-335.4-150.1-335.4-335.2
		c0-92.6,37.4-176.4,98-237L230.2,198.8C142.9,286.1,88.9,406.6,88.9,539.7C88.9,805.9,304.8,1021.8,571,1021.8z"/>
	
		<linearGradient id="XMLID_94_" gradientUnits="userSpaceOnUse" x1="1235.427" y1="476.0965" x2="1785.5139" y2="476.0965" gradientTransform="matrix(-1 0 0 -1 1920 1079.7189)">
		<stop  offset="0" style="stop-color:#7D7AE6;stop-opacity:0.5"/>
		<stop  offset="0.1007" style="stop-color:#6391DF;stop-opacity:0.5"/>
		<stop  offset="0.4935" style="stop-color:#00E9C5;stop-opacity:0.5"/>
		<stop  offset="0.7857" style="stop-color:#00C0B4;stop-opacity:0.5"/>
		<stop  offset="1" style="stop-color:#00A7AA;stop-opacity:0.5"/>
	</linearGradient>
	<path id="XMLID_16_" class="st24" d="M571,976.2c39.3,0,77.4-5.2,113.6-14.9l-113.1-86.4c-186,0-335.4-150.1-335.4-335.2
		c0-92.6,37.4-176.4,98-237L262.4,231c-79,79-127.9,188.1-127.9,308.7C134.5,780.8,329.9,976.2,571,976.2z"/>
	
		<linearGradient id="XMLID_95_" gradientUnits="userSpaceOnUse" x1="1288.1256" y1="483.4844" x2="1735.0947" y2="483.4844" gradientTransform="matrix(-1 0 0 -1 1920 1079.7189)">
		<stop  offset="0" style="stop-color:#7D7AE6"/>
		<stop  offset="0.1007" style="stop-color:#6391DF"/>
		<stop  offset="0.4935" style="stop-color:#00E9C5"/>
		<stop  offset="0.7857" style="stop-color:#00C0B4"/>
		<stop  offset="1" style="stop-color:#00A7AA"/>
	</linearGradient>
	<path id="XMLID_15_" class="st25" d="M571,925.8c20.7,0,41-1.6,60.9-4.8l-60.4-46.1c-186,0-335.4-150.1-335.4-335.2
		c0-92.6,37.4-176.4,98-237L298,266.7c-69.9,69.9-113.1,166.4-113.1,273.1C184.9,753,357.8,925.8,571,925.8z"/>
</g>
<g id="Capa_3_copia" class="st0">
	<g id="XMLID_3_" class="st2">
		<text id="XMLID_162_" transform="matrix(0.9154 0 0 1 310.2684 704.458)" class="st26 st27">APPUNTA</text>
		<g id="XMLID_122_">
			<linearGradient id="XMLID_96_" gradientUnits="userSpaceOnUse" x1="310.9395" y1="528.5547" x2="2777.8887" y2="528.5547">
				<stop  offset="0" style="stop-color:#7D7AE6"/>
				<stop  offset="0.1007" style="stop-color:#6391DF"/>
				<stop  offset="0.4935" style="stop-color:#00E9C5"/>
				<stop  offset="0.7857" style="stop-color:#00C0B4"/>
				<stop  offset="1" style="stop-color:#00A7AA"/>
			</linearGradient>
			<path id="XMLID_138_" class="st28" d="M545.2,645.4H430.3l-16,59.1H310.9l123.1-357.9h110.4l123.1,357.9h-106L545.2,645.4z
				 M524.2,568l-36.2-128.7L452.3,568H524.2z"/>
			<linearGradient id="XMLID_97_" gradientUnits="userSpaceOnUse" x1="310.9395" y1="528.5547" x2="2777.8887" y2="528.5547">
				<stop  offset="0" style="stop-color:#7D7AE6"/>
				<stop  offset="0.1007" style="stop-color:#6391DF"/>
				<stop  offset="0.4935" style="stop-color:#00E9C5"/>
				<stop  offset="0.7857" style="stop-color:#00C0B4"/>
				<stop  offset="1" style="stop-color:#00A7AA"/>
			</linearGradient>
			<path id="XMLID_135_" class="st29" d="M699.4,346.5h168.3c36.7,0,64.1,9.5,82.4,28.6c18.2,19,27.4,46.1,27.4,81.3
				c0,36.1-9.9,64.4-29.8,84.7c-19.9,20.3-50.3,30.5-91.1,30.5h-55.4v132.8H699.4V346.5z M801.1,499.1h24.8
				c19.5,0,33.2-3.7,41.1-11.1c7.9-7.4,11.8-16.9,11.8-28.4c0-11.2-3.4-20.8-10.3-28.6c-6.9-7.8-19.7-11.7-38.7-11.7h-28.8V499.1z"
				/>
			<linearGradient id="XMLID_98_" gradientUnits="userSpaceOnUse" x1="310.9395" y1="528.5547" x2="2777.8887" y2="528.5547">
				<stop  offset="0" style="stop-color:#7D7AE6"/>
				<stop  offset="0.1007" style="stop-color:#6391DF"/>
				<stop  offset="0.4935" style="stop-color:#00E9C5"/>
				<stop  offset="0.7857" style="stop-color:#00C0B4"/>
				<stop  offset="1" style="stop-color:#00A7AA"/>
			</linearGradient>
			<path id="XMLID_132_" class="st30" d="M1029.9,346.5h168.3c36.7,0,64.1,9.5,82.4,28.6c18.2,19,27.4,46.1,27.4,81.3
				c0,36.1-9.9,64.4-29.8,84.7c-19.9,20.3-50.3,30.5-91.1,30.5h-55.4v132.8h-101.7V346.5z M1131.6,499.1h24.8
				c19.5,0,33.2-3.7,41.1-11.1c7.9-7.4,11.8-16.9,11.8-28.4c0-11.2-3.4-20.8-10.3-28.6c-6.9-7.8-19.7-11.7-38.7-11.7h-28.8V499.1z"
				/>
			<linearGradient id="XMLID_99_" gradientUnits="userSpaceOnUse" x1="310.9395" y1="528.5547" x2="2777.8887" y2="528.5547">
				<stop  offset="0" style="stop-color:#7D7AE6"/>
				<stop  offset="0.1007" style="stop-color:#6391DF"/>
				<stop  offset="0.4935" style="stop-color:#00E9C5"/>
				<stop  offset="0.7857" style="stop-color:#00C0B4"/>
				<stop  offset="1" style="stop-color:#00A7AA"/>
			</linearGradient>
			<path id="XMLID_130_" class="st31" d="M1574.1,346.5h101v213.2c0,21.1-3,41.1-9.1,59.9c-6,18.8-15.5,35.2-28.4,49.3
				c-12.9,14.1-26.4,23.9-40.6,29.6c-19.7,8-43.3,12-70.8,12c-15.9,0-33.3-1.2-52.2-3.7c-18.9-2.4-34.6-7.3-47.3-14.5
				c-12.7-7.2-24.2-17.5-34.8-30.9s-17.7-27.1-21.6-41.2c-6.3-22.8-9.4-42.9-9.4-60.5V346.5h101v218.3c0,19.5,5,34.8,14.9,45.7
				c9.9,11,23.7,16.5,41.2,16.5c17.4,0,31.1-5.4,41-16.2c9.9-10.8,14.9-26.1,14.9-46V346.5z"/>
			<linearGradient id="XMLID_100_" gradientUnits="userSpaceOnUse" x1="310.9395" y1="528.5547" x2="2777.8887" y2="528.5547">
				<stop  offset="0" style="stop-color:#7D7AE6"/>
				<stop  offset="0.1007" style="stop-color:#6391DF"/>
				<stop  offset="0.4935" style="stop-color:#00E9C5"/>
				<stop  offset="0.7857" style="stop-color:#00C0B4"/>
				<stop  offset="1" style="stop-color:#00A7AA"/>
			</linearGradient>
			<path id="XMLID_128_" class="st32" d="M1742.9,346.5h94.5l123.4,198v-198h95.4v357.9h-95.4l-122.7-196.5v196.5h-95.2V346.5z"/>
			<linearGradient id="XMLID_101_" gradientUnits="userSpaceOnUse" x1="310.9395" y1="528.5547" x2="2777.8887" y2="528.5547">
				<stop  offset="0" style="stop-color:#7D7AE6"/>
				<stop  offset="0.1007" style="stop-color:#6391DF"/>
				<stop  offset="0.4935" style="stop-color:#00E9C5"/>
				<stop  offset="0.7857" style="stop-color:#00C0B4"/>
				<stop  offset="1" style="stop-color:#00A7AA"/>
			</linearGradient>
			<path id="XMLID_126_" class="st33" d="M2100.5,346.5h307.8v88.4H2305v269.5h-101.2V434.9h-103.3V346.5z"/>
			<linearGradient id="XMLID_102_" gradientUnits="userSpaceOnUse" x1="310.9395" y1="528.5547" x2="2777.8887" y2="528.5547">
				<stop  offset="0" style="stop-color:#7D7AE6"/>
				<stop  offset="0.1007" style="stop-color:#6391DF"/>
				<stop  offset="0.4935" style="stop-color:#00E9C5"/>
				<stop  offset="0.7857" style="stop-color:#00C0B4"/>
				<stop  offset="1" style="stop-color:#00A7AA"/>
			</linearGradient>
			<path id="XMLID_123_" class="st34" d="M2655.5,645.4h-114.9l-16,59.1h-103.4l123.1-357.9h110.4l123.1,357.9h-106L2655.5,645.4z
				 M2634.5,568l-36.2-128.7L2562.5,568H2634.5z"/>
		</g>
	</g>
</g>
<g id="Capa_3" class="st0">
	<g id="XMLID_11_" class="st2">
		<text id="XMLID_160_" transform="matrix(0.9154 0 0 1 1013.1439 1002.1229)" class="st35 st36 st37">APPUNTA</text>
		<g id="XMLID_141_">
			<linearGradient id="XMLID_103_" gradientUnits="userSpaceOnUse" x1="1034.4873" y1="556.123" x2="6359.9697" y2="556.123">
				<stop  offset="0" style="stop-color:#7D7AE6"/>
				<stop  offset="0.1007" style="stop-color:#6391DF"/>
				<stop  offset="0.4935" style="stop-color:#00E9C5"/>
				<stop  offset="0.7857" style="stop-color:#00C0B4"/>
				<stop  offset="1" style="stop-color:#00A7AA"/>
			</linearGradient>
			<path id="XMLID_157_" class="st38" d="M1753.2,1002.1l-99.6-263h-487.4l-103.2,263h-28.5l364.1-918h33.2l349.9,918H1753.2z
				 M1414,102.4l-238.4,611.7h469.7L1414,102.4z"/>
			<linearGradient id="XMLID_104_" gradientUnits="userSpaceOnUse" x1="1034.4873" y1="556.123" x2="6359.9697" y2="556.123">
				<stop  offset="0" style="stop-color:#7D7AE6"/>
				<stop  offset="0.1007" style="stop-color:#6391DF"/>
				<stop  offset="0.4935" style="stop-color:#00E9C5"/>
				<stop  offset="0.7857" style="stop-color:#00C0B4"/>
				<stop  offset="1" style="stop-color:#00A7AA"/>
			</linearGradient>
			<path id="XMLID_154_" class="st39" d="M2416.3,312.4c0,38.9-6.5,73.3-19.6,103.1c-13,29.8-30.6,54.7-52.7,74.6s-48,35-77.6,45.4
				s-61,15.6-94.2,15.6h-216.9v451h-26v-918h227.5c30,0,60.4,3.7,91.2,11s58.7,19.7,83.5,37c24.9,17.3,45.2,40.6,61,70
				S2416.3,268.3,2416.3,312.4z M2390.3,312.4c0-38.8-6.7-71.2-20.2-97.1s-30.8-46.6-52.2-62.2c-21.3-15.5-45.2-26.8-71.7-33.7
				s-52.8-10.4-78.8-10.4h-212.2v417h218.1c26.1,0,52.1-3.9,78.2-11.7c26.1-7.8,49.4-20.3,69.9-37.5s37.1-39.5,49.8-66.7
				C2383.9,383,2390.3,350.4,2390.3,312.4z"/>
			<linearGradient id="XMLID_105_" gradientUnits="userSpaceOnUse" x1="1034.4873" y1="556.123" x2="6359.9697" y2="556.123">
				<stop  offset="0" style="stop-color:#7D7AE6"/>
				<stop  offset="0.1007" style="stop-color:#6391DF"/>
				<stop  offset="0.4935" style="stop-color:#00E9C5"/>
				<stop  offset="0.7857" style="stop-color:#00C0B4"/>
				<stop  offset="1" style="stop-color:#00A7AA"/>
			</linearGradient>
			<path id="XMLID_151_" class="st40" d="M3094.9,312.4c0,38.9-6.5,73.3-19.6,103.1c-13,29.8-30.6,54.7-52.7,74.6s-48,35-77.6,45.4
				s-61,15.6-94.2,15.6h-216.9v451h-26v-918h227.5c30,0,60.4,3.7,91.2,11s58.7,19.7,83.5,37c24.9,17.3,45.2,40.6,61,70
				S3094.9,268.3,3094.9,312.4z M3068.9,312.4c0-38.8-6.7-71.2-20.2-97.1s-30.8-46.6-52.2-62.2c-21.3-15.5-45.2-26.8-71.7-33.7
				s-52.8-10.4-78.8-10.4h-212.2v417H2852c26.1,0,52.1-3.9,78.2-11.7c26.1-7.8,49.4-20.3,69.9-37.5s37.1-39.5,49.8-66.7
				C3062.6,383,3068.9,350.4,3068.9,312.4z"/>
			<linearGradient id="XMLID_106_" gradientUnits="userSpaceOnUse" x1="1034.4873" y1="556.123" x2="6359.9697" y2="556.123">
				<stop  offset="0" style="stop-color:#7D7AE6"/>
				<stop  offset="0.1007" style="stop-color:#6391DF"/>
				<stop  offset="0.4935" style="stop-color:#00E9C5"/>
				<stop  offset="0.7857" style="stop-color:#00C0B4"/>
				<stop  offset="1" style="stop-color:#00A7AA"/>
			</linearGradient>
			<path id="XMLID_149_" class="st41" d="M3897.9,800.6c-11.1,45.4-29.2,84.9-54.5,118.6s-58.3,60.3-99,79.8
				c-40.7,19.4-90.7,29.2-149.9,29.2c-59.3,0-109.2-9.7-149.9-29.2c-40.7-19.5-73.7-46-99-79.8s-43.5-73.3-54.5-118.6
				s-16.6-94-16.6-145.9V84.1h26v565.3c0,36.3,3.4,75,10.1,116s20.5,79.1,41.5,114.1c20.9,35,50.6,64.2,88.9,87.5s89.5,35,153.5,35
				c62.4,0,112.8-11.2,151.1-33.7s68.2-51.2,89.5-86.2c21.3-35,35.6-73,42.7-114.1c7.1-41.1,10.7-80.6,10.7-118.6V84.1h26v570.5
				C3914.5,706.5,3909,755.2,3897.9,800.6z"/>
			<linearGradient id="XMLID_107_" gradientUnits="userSpaceOnUse" x1="1034.4873" y1="556.123" x2="6359.9697" y2="556.123">
				<stop  offset="0" style="stop-color:#7D7AE6"/>
				<stop  offset="0.1007" style="stop-color:#6391DF"/>
				<stop  offset="0.4935" style="stop-color:#00E9C5"/>
				<stop  offset="0.7857" style="stop-color:#00C0B4"/>
				<stop  offset="1" style="stop-color:#00A7AA"/>
			</linearGradient>
			<path id="XMLID_147_" class="st42" d="M4787,1002.1L4185,120.4h-4v881.7h-26v-918h36.8l603.7,880.4h3.6V84.1h26v918H4787z"/>
			<linearGradient id="XMLID_108_" gradientUnits="userSpaceOnUse" x1="1034.4873" y1="556.123" x2="6359.9697" y2="556.123">
				<stop  offset="0" style="stop-color:#7D7AE6"/>
				<stop  offset="0.1007" style="stop-color:#6391DF"/>
				<stop  offset="0.4935" style="stop-color:#00E9C5"/>
				<stop  offset="0.7857" style="stop-color:#00C0B4"/>
				<stop  offset="1" style="stop-color:#00A7AA"/>
			</linearGradient>
			<path id="XMLID_145_" class="st43" d="M5283.8,110.1v892h-26v-892H4972v-26h597.7v26H5283.8z"/>
			<linearGradient id="XMLID_109_" gradientUnits="userSpaceOnUse" x1="1034.4873" y1="556.123" x2="6359.9697" y2="556.123">
				<stop  offset="0" style="stop-color:#7D7AE6"/>
				<stop  offset="0.1007" style="stop-color:#6391DF"/>
				<stop  offset="0.4935" style="stop-color:#00E9C5"/>
				<stop  offset="0.7857" style="stop-color:#00C0B4"/>
				<stop  offset="1" style="stop-color:#00A7AA"/>
			</linearGradient>
			<path id="XMLID_142_" class="st44" d="M6331.5,1002.1l-99.6-263h-487.4l-103.2,263h-28.5l364.1-918h33.2l349.9,918H6331.5z
				 M5992.3,102.4l-238.4,611.7h469.7L5992.3,102.4z"/>
		</g>
	</g>
</g>
</svg>
