<?xml version="1.0" encoding="utf-8"?>
<!-- Generator: Adobe Illustrator 19.0.0, SVG Export Plug-In . SVG Version: 6.00 Build 0)  -->
<svg version="1.1" xmlns="http://www.w3.org/2000/svg" xmlns:xlink="http://www.w3.org/1999/xlink" x="0px" y="0px"
	 viewBox="0 0 1920 1080" style="enable-background:new 0 0 1920 1080;" xml:space="preserve">
<style type="text/css">
	.st0{fill:url(#XMLID_15_);}
	.st1{display:none;fill:none;stroke:url(#XMLID_16_);stroke-width:30;stroke-miterlimit:10;}
	.st2{display:none;fill:url(#XMLID_17_);}
	.st3{fill:url(#Punta_2_);}
	.st4{fill:url(#XMLID_18_);}
	.st5{display:none;fill:url(#XMLID_19_);}
	.st6{fill:url(#XMLID_23_);}
	.st7{display:none;fill:none;stroke:url(#XMLID_25_);stroke-width:30;stroke-miterlimit:10;}
	.st8{display:none;fill:url(#XMLID_26_);}
	.st9{fill:url(#Punta_3_);}
	.st10{fill:url(#XMLID_27_);}
	.st11{display:none;fill:url(#XMLID_28_);}
	.st12{fill:none;}
	.st13{fill:#57577C;}
	.st14{font-family:'AvenirNext-UltraLight';}
	.st15{font-size:115px;}
</style>
<g id="Capa_1">
	<g id="XMLID_4_">
		<linearGradient id="XMLID_15_" gradientUnits="userSpaceOnUse" x1="840" y1="464.0215" x2="1478.5327" y2="464.0215">
			<stop  offset="0" style="stop-color:#7D7AE6"/>
			<stop  offset="0.1007" style="stop-color:#6391DF"/>
			<stop  offset="0.4935" style="stop-color:#00E9C5"/>
			<stop  offset="0.7857" style="stop-color:#00C0B4"/>
			<stop  offset="1" style="stop-color:#00A7AA"/>
		</linearGradient>
		<path id="XMLID_22_" class="st0" d="M959.5,21.2L840,113.5l119.5,91.3c186,0,335.4,150.1,335.4,335.2c0,92.6-37.4,176.4-98,237
			l129.9,129.9c93.9-93.9,151.7-223.6,151.7-366.9C1478.5,253.5,1246.5,21.2,959.5,21.2z"/>
	</g>
	<linearGradient id="XMLID_16_" gradientUnits="userSpaceOnUse" x1="426.4673" y1="540" x2="1493.5327" y2="540">
		<stop  offset="0" style="stop-color:#7D7AE6"/>
		<stop  offset="0.1007" style="stop-color:#6391DF"/>
		<stop  offset="0.4935" style="stop-color:#00E9C5"/>
		<stop  offset="0.7857" style="stop-color:#00C0B4"/>
		<stop  offset="1" style="stop-color:#00A7AA"/>
	</linearGradient>
	<circle id="XMLID_1_" class="st1" cx="960" cy="540" r="518.5"/>
	<linearGradient id="XMLID_17_" gradientUnits="userSpaceOnUse" x1="840" y1="469.4235" x2="1442.0537" y2="469.4235">
		<stop  offset="0" style="stop-color:#7D7AE6"/>
		<stop  offset="0.1007" style="stop-color:#6391DF"/>
		<stop  offset="0.4935" style="stop-color:#00E9C5"/>
		<stop  offset="0.7857" style="stop-color:#00C0B4"/>
		<stop  offset="1" style="stop-color:#00A7AA"/>
	</linearGradient>
	<path id="XMLID_8_" class="st2" d="M960,57.9c-17.4,0-34.7,0.9-51.6,2.7L840,113.5l119.5,91.3c186,0,335.4,150.1,335.4,335.2
		c0,92.6-37.4,176.4-98,237l103.9,103.9c87.3-87.2,141.2-207.8,141.2-340.9C1442.1,273.8,1226.2,57.9,960,57.9z"/>
	<linearGradient id="Punta_2_" gradientUnits="userSpaceOnUse" x1="840" y1="113.3043" x2="934.6102" y2="113.3043">
		<stop  offset="0" style="stop-color:#48577C;stop-opacity:0.2"/>
		<stop  offset="0.9987" style="stop-color:#57577C;stop-opacity:0.2"/>
	</linearGradient>
	<path id="Punta" class="st3" d="M915.2,170.9c12.2-15.9,19.4-35.8,19.4-57.4c0-21.8-7.4-41.8-19.7-57.8L840,113.5L915.2,170.9z"/>
	<linearGradient id="XMLID_18_" gradientUnits="userSpaceOnUse" x1="846.4269" y1="476.0965" x2="1396.5139" y2="476.0965">
		<stop  offset="0" style="stop-color:#7D7AE6;stop-opacity:0.5"/>
		<stop  offset="0.1007" style="stop-color:#6391DF;stop-opacity:0.5"/>
		<stop  offset="0.4935" style="stop-color:#00E9C5;stop-opacity:0.5"/>
		<stop  offset="0.7857" style="stop-color:#00C0B4;stop-opacity:0.5"/>
		<stop  offset="1" style="stop-color:#00A7AA;stop-opacity:0.5"/>
	</linearGradient>
	<path id="XMLID_7_" class="st4" d="M960,103.5c-39.3,0-77.4,5.2-113.6,14.9l113.1,86.4c186,0,335.4,150.1,335.4,335.2
		c0,92.6-37.4,176.4-98,237l71.7,71.7c79-79,127.9-188.1,127.9-308.7C1396.5,298.9,1201.1,103.5,960,103.5z"/>
	<linearGradient id="XMLID_19_" gradientUnits="userSpaceOnUse" x1="899.1255" y1="483.4844" x2="1346.0947" y2="483.4844">
		<stop  offset="0" style="stop-color:#7D7AE6"/>
		<stop  offset="0.1007" style="stop-color:#6391DF"/>
		<stop  offset="0.4935" style="stop-color:#00E9C5"/>
		<stop  offset="0.7857" style="stop-color:#00C0B4"/>
		<stop  offset="1" style="stop-color:#00A7AA"/>
	</linearGradient>
	<path id="XMLID_6_" class="st5" d="M960,153.9c-20.7,0-41,1.6-60.9,4.8l60.4,46.1c186,0,335.4,150.1,335.4,335.2
		c0,92.6-37.4,176.4-98,237l36.1,36.1c69.9-69.9,113.1-166.4,113.1-273.1C1346.1,326.8,1173.2,153.9,960,153.9z"/>
</g>
<g id="Capa_1_copia">
	<g id="XMLID_10_">
		
			<linearGradient id="XMLID_23_" gradientUnits="userSpaceOnUse" x1="840" y1="464.0215" x2="1478.5327" y2="464.0215" gradientTransform="matrix(-1 0 0 -1 1920 1079.7189)">
			<stop  offset="0" style="stop-color:#7D7AE6"/>
			<stop  offset="0.1007" style="stop-color:#6391DF"/>
			<stop  offset="0.4935" style="stop-color:#00E9C5"/>
			<stop  offset="0.7857" style="stop-color:#00C0B4"/>
			<stop  offset="1" style="stop-color:#00A7AA"/>
		</linearGradient>
		<path id="XMLID_24_" class="st6" d="M960.5,1058.5l119.5-92.3l-119.5-91.3c-186,0-335.4-150.1-335.4-335.2
			c0-92.6,37.4-176.4,98-237L593.2,172.9c-93.9,93.9-151.7,223.6-151.7,366.9C441.5,826.3,673.5,1058.5,960.5,1058.5z"/>
	</g>
	
		<linearGradient id="XMLID_25_" gradientUnits="userSpaceOnUse" x1="426.4673" y1="540" x2="1493.5327" y2="540" gradientTransform="matrix(-1 0 0 -1 1920 1079.7189)">
		<stop  offset="0" style="stop-color:#7D7AE6"/>
		<stop  offset="0.1007" style="stop-color:#6391DF"/>
		<stop  offset="0.4935" style="stop-color:#00E9C5"/>
		<stop  offset="0.7857" style="stop-color:#00C0B4"/>
		<stop  offset="1" style="stop-color:#00A7AA"/>
	</linearGradient>
	<circle id="XMLID_9_" class="st7" cx="960" cy="539.7" r="518.5"/>
	
		<linearGradient id="XMLID_26_" gradientUnits="userSpaceOnUse" x1="840" y1="469.4235" x2="1442.0537" y2="469.4235" gradientTransform="matrix(-1 0 0 -1 1920 1079.7189)">
		<stop  offset="0" style="stop-color:#7D7AE6"/>
		<stop  offset="0.1007" style="stop-color:#6391DF"/>
		<stop  offset="0.4935" style="stop-color:#00E9C5"/>
		<stop  offset="0.7857" style="stop-color:#00C0B4"/>
		<stop  offset="1" style="stop-color:#00A7AA"/>
	</linearGradient>
	<path id="XMLID_5_" class="st8" d="M960,1021.8c17.4,0,34.7-0.9,51.6-2.7l68.4-52.8l-119.5-91.3c-186,0-335.4-150.1-335.4-335.2
		c0-92.6,37.4-176.4,98-237L619.2,198.8c-87.3,87.2-141.2,207.8-141.2,340.9C477.9,805.9,693.8,1021.8,960,1021.8z"/>
	<linearGradient id="Punta_3_" gradientUnits="userSpaceOnUse" x1="1080" y1="966.4145" x2="985.3898" y2="966.4146">
		<stop  offset="0" style="stop-color:#48577C;stop-opacity:0.2"/>
		<stop  offset="1" style="stop-color:#57577C;stop-opacity:0.2"/>
	</linearGradient>
	<path id="Punta_1_" class="st9" d="M1004.8,908.8c-12.2,15.9-19.4,35.8-19.4,57.4c0,21.8,7.4,41.8,19.7,57.8l74.9-57.8
		L1004.8,908.8z"/>
	
		<linearGradient id="XMLID_27_" gradientUnits="userSpaceOnUse" x1="846.4269" y1="476.0965" x2="1396.5139" y2="476.0965" gradientTransform="matrix(-1 0 0 -1 1920 1079.7189)">
		<stop  offset="0" style="stop-color:#7D7AE6;stop-opacity:0.5"/>
		<stop  offset="0.1007" style="stop-color:#6391DF;stop-opacity:0.5"/>
		<stop  offset="0.4935" style="stop-color:#00E9C5;stop-opacity:0.5"/>
		<stop  offset="0.7857" style="stop-color:#00C0B4;stop-opacity:0.5"/>
		<stop  offset="1" style="stop-color:#00A7AA;stop-opacity:0.5"/>
	</linearGradient>
	<path id="XMLID_3_" class="st10" d="M960,976.2c39.3,0,77.4-5.2,113.6-14.9l-113.1-86.4c-186,0-335.4-150.1-335.4-335.2
		c0-92.6,37.4-176.4,98-237L651.4,231c-79,79-127.9,188.1-127.9,308.7C523.5,780.8,718.9,976.2,960,976.2z"/>
	
		<linearGradient id="XMLID_28_" gradientUnits="userSpaceOnUse" x1="899.1255" y1="483.4844" x2="1346.0947" y2="483.4844" gradientTransform="matrix(-1 0 0 -1 1920 1079.7189)">
		<stop  offset="0" style="stop-color:#7D7AE6"/>
		<stop  offset="0.1007" style="stop-color:#6391DF"/>
		<stop  offset="0.4935" style="stop-color:#00E9C5"/>
		<stop  offset="0.7857" style="stop-color:#00C0B4"/>
		<stop  offset="1" style="stop-color:#00A7AA"/>
	</linearGradient>
	<path id="XMLID_2_" class="st11" d="M960,925.8c20.7,0,41-1.6,60.9-4.8l-60.4-46.1c-186,0-335.4-150.1-335.4-335.2
		c0-92.6,37.4-176.4,98-237L687,266.7c-69.9,69.9-113.1,166.4-113.1,273.1C573.9,753,746.8,925.8,960,925.8z"/>
</g>
<g id="Capa_3">
	<rect id="XMLID_13_" x="693.2" y="466.7" class="st12" width="533.6" height="125.8"/>
	<text id="XMLID_11_" transform="matrix(1 0 0 1 699.8167 564.8901)" class="st13 st14 st15">APPUNTA</text>
</g>
</svg>
